<?xml version="1.0" encoding="UTF-8"?>
<svg width="940px" height="55px" viewBox="0 0 940 55" version="1.1" xmlns="http://www.w3.org/2000/svg" xmlns:xlink="http://www.w3.org/1999/xlink">
    <!-- Generator: Sketch 49 (51002) - http://www.bohemiancoding.com/sketch -->
    <title>banner</title>
    <desc>Created with Sketch.</desc>
    <defs></defs>
    <g id="banner" stroke="none" stroke-width="1" fill="none" fill-rule="evenodd">
        <g id="Group-2" transform="translate(0.000000, 1.000000)">
            <g id="Group" transform="translate(0.000000, 25.000000)" fill-rule="nonzero">
                <g id="apple" fill="#868F98">
                    <path d="M21.4540146,20.1460123 C21.0686131,21.0552147 20.5868613,21.8846626 20.0569343,22.6503067 C19.3182482,23.6871166 18.7240876,24.4208589 18.2583942,24.8196319 C17.5357664,25.4736196 16.7649635,25.808589 15.9459854,25.8404908 C15.3518248,25.8404908 14.6452555,25.6650307 13.810219,25.3300613 C12.9751825,24.995092 12.2043796,24.8196319 11.5138686,24.8196319 C10.7751825,24.8196319 9.98832117,24.995092 9.15328467,25.3300613 C8.30218978,25.6650307 7.62773723,25.8404908 7.11386861,25.8723926 C6.3270073,25.9042945 5.54014599,25.5533742 4.75328467,24.8355828 C4.25547445,24.404908 3.62919708,23.6552147 2.87445255,22.602454 C2.07153285,21.4699387 1.39708029,20.1619632 0.883211679,18.6625767 C0.272992701,17.0196319 0,15.4564417 0,13.9411043 C0,12.202454 0.369343066,10.7190184 1.12408759,9.45889571 C1.71824818,8.45398773 2.50510949,7.65644172 3.50072993,7.08220859 C4.49635036,6.50797546 5.55620438,6.20490798 6.69635036,6.18895706 C7.32262774,6.18895706 8.14160584,6.3803681 9.16934307,6.76319018 C10.1970803,7.14601227 10.8394161,7.33742331 11.1284672,7.33742331 C11.3372263,7.33742331 12.0759124,7.11411043 13.3124088,6.66748466 C14.4846715,6.25276074 15.4642336,6.07730061 16.2671533,6.14110429 C18.4510949,6.31656442 20.1051095,7.17791411 21.1970803,8.72515337 C19.2379562,9.90552147 18.2744526,11.5484663 18.2905109,13.6699387 C18.3065693,15.3128834 18.9167883,16.6846626 20.0890511,17.7852761 C20.6189781,18.2957055 21.2291971,18.6785276 21.8875912,18.9656442 C21.7751825,19.3644172 21.6145985,19.7631902 21.4540146,20.1460123 Z M16.4277372,0.510429448 C16.4277372,1.80245399 15.9459854,3.01472393 14.9985401,4.13128834 C13.8744526,5.45521472 12.4773723,6.2208589 10.9839416,6.10920245 C10.9678832,5.94969325 10.9518248,5.79018405 10.9518248,5.61472393 C10.9518248,4.37055215 11.4978102,3.04662577 12.4613139,1.96196319 C12.9430657,1.4196319 13.5532847,0.957055215 14.2919708,0.590184049 C15.0306569,0.223312883 15.7372263,0.0319018405 16.3956204,0 C16.4277372,0.175460123 16.4277372,0.350920245 16.4277372,0.510429448 Z" id="Shape"></path>
                </g>
                <g id="google" transform="translate(40.000000, 3.000000)" fill="#868F98">
                    <path d="M33.7651852,13.6426966 C33.7651852,17.3820225 30.8392593,20.1280899 27.2696296,20.1280899 C23.7,20.1280899 20.7740741,17.3820225 20.7740741,13.6426966 C20.7740741,9.8741573 23.7,7.15730337 27.2696296,7.15730337 C30.8392593,7.15730337 33.7651852,9.8741573 33.7651852,13.6426966 Z M30.927037,13.6426966 C30.927037,11.305618 29.23,9.72808989 27.2696296,9.72808989 C25.3092593,9.72808989 23.6122222,11.3348315 23.6122222,13.6426966 C23.6122222,15.9505618 25.3092593,17.5573034 27.2696296,17.5573034 C29.23,17.5573034 30.927037,15.9505618 30.927037,13.6426966 Z" id="Shape"></path>
                    <path d="M47.8096296,13.6426966 C47.8096296,17.3820225 44.8837037,20.1280899 41.3140741,20.1280899 C37.7444444,20.1280899 34.8185185,17.3820225 34.8185185,13.6426966 C34.8185185,9.90337079 37.7444444,7.15730337 41.3140741,7.15730337 C44.8837037,7.15730337 47.8096296,9.8741573 47.8096296,13.6426966 Z M44.9422222,13.6426966 C44.9422222,11.305618 43.2451852,9.72808989 41.2848148,9.72808989 C39.3244444,9.72808989 37.6274074,11.3348315 37.6274074,13.6426966 C37.6274074,15.9505618 39.3244444,17.5573034 41.2848148,17.5573034 C43.2451852,17.5573034 44.9422222,15.9505618 44.9422222,13.6426966 Z" id="Shape"></path>
                    <path d="M61.2688889,7.56629213 L61.2688889,19.1932584 C61.2688889,23.9842697 58.4307407,25.941573 55.0951852,25.941573 C51.9351852,25.941573 50.0625926,23.8382022 49.3311111,22.1146067 L51.8181481,21.0921348 C52.257037,22.1438202 53.3396296,23.4 55.0951852,23.4 C57.2311111,23.4 58.5477778,22.0853933 58.5477778,19.6022472 L58.5477778,18.6674157 L58.46,18.6674157 C57.8162963,19.4561798 56.5874074,20.1280899 55.0366667,20.1280899 C51.7888889,20.1280899 48.8337037,17.294382 48.8337037,13.6719101 C48.8337037,10.0202247 51.8181481,7.15730337 55.0366667,7.15730337 C56.5874074,7.15730337 57.8162963,7.85842697 58.46,8.61797753 L58.5477778,8.61797753 L58.5477778,7.56629213 L61.2688889,7.56629213 Z M58.7525926,13.6719101 C58.7525926,11.3932584 57.2311111,9.72808989 55.3,9.72808989 C53.3396296,9.72808989 51.6718519,11.3932584 51.6718519,13.6719101 C51.6718519,15.9213483 53.3103704,17.5865169 55.3,17.5865169 C57.2311111,17.5865169 58.7525926,15.9213483 58.7525926,13.6719101 Z" id="Shape"></path>
                    <polygon id="Shape" points="65.7162963 0.730337079 65.7162963 19.7191011 62.9366667 19.7191011 62.9366667 0.730337079"></polygon>
                    <path d="M76.5714815,15.7752809 L78.7951852,17.2359551 C78.092963,18.2876404 76.3666667,20.0988764 73.3822222,20.0988764 C69.6955556,20.0988764 66.9451852,17.2651685 66.9451852,13.6134831 C66.9451852,9.75730337 69.7248148,7.12808989 73.0603704,7.12808989 C76.4251852,7.12808989 78.0637037,9.81573034 78.6196296,11.247191 L78.9122222,11.9775281 L70.2222222,15.6 C70.8951852,16.9146067 71.9192593,17.5573034 73.3822222,17.5573034 C74.8159259,17.5573034 75.8107407,16.8561798 76.5714815,15.7752809 Z M69.7540741,13.4382022 L75.5474074,11.0426966 C75.2255556,10.2247191 74.26,9.66966292 73.1481481,9.66966292 C71.6851852,9.66966292 69.6662963,10.9550562 69.7540741,13.4382022 Z" id="Shape"></path>
                    <path d="M10.2114815,11.9483146 L10.2114815,9.20224719 L19.4866667,9.20224719 C19.5744444,9.66966292 19.632963,10.2539326 19.632963,10.8674157 C19.632963,12.941573 19.077037,15.4831461 17.2337037,17.294382 C15.4781481,19.1348315 13.1959259,20.1280899 10.2114815,20.1280899 C4.68148148,20.1280899 0,15.6 0,10.0494382 C0,4.4988764 4.68148148,0 10.2114815,0 C13.2837037,0 15.4781481,1.19775281 17.1166667,2.7752809 L15.1855556,4.70337079 C14.0151852,3.59325843 12.4059259,2.74606742 10.2114815,2.74606742 C6.14444444,2.74606742 2.98444444,6.01797753 2.98444444,10.0494382 C2.98444444,14.0808989 6.14444444,17.352809 10.2114815,17.352809 C12.8448148,17.352809 14.337037,16.3011236 15.3025926,15.3370787 C16.0925926,14.5483146 16.59,13.4382022 16.7948148,11.9191011 L10.2114815,11.9483146 Z" id="Shape"></path>
                </g>
                <g id="twitter" transform="translate(138.000000, 4.000000)" fill="#868F98">
                    <path d="M7.38655462,17.9622378 C3.30252101,17.9622378 0,14.6517483 0,10.586014 L0.025210084,2.11468531 C0.025210084,0.944055944 0.970588235,0 2.14285714,0 C3.31512605,0 4.2605042,0.944055944 4.2605042,2.11468531 L4.2605042,5.28671329 L9.55462185,5.28671329 C10.7268908,5.28671329 11.6722689,6.23076923 11.6722689,7.4013986 C11.6722689,8.57202797 10.7142857,9.5034965 9.54201681,9.5034965 L4.24789916,9.5034965 L4.24789916,10.5734266 C4.24789916,12.3230769 5.65966387,13.7328671 7.41176471,13.7328671 C7.41176471,13.7328671 7.41176471,13.7328671 7.41176471,13.7328671 L10.5882353,13.7328671 C11.7605042,13.7328671 12.7058824,14.6769231 12.7058824,15.8475524 C12.7058824,17.0181818 11.7605042,17.9622378 10.5882353,17.9622378 L7.38655462,17.9622378 Z" id="Shape"></path>
                    <path d="M49.1848739,17.9622378 C45.1008403,17.9622378 41.8235294,14.6517483 41.8235294,10.586014 L41.8235294,2.11468531 C41.8235294,0.944055944 42.7689076,0 43.9411765,0 C45.1134454,0 46.0588235,0.944055944 46.0588235,2.11468531 L46.0588235,5.28671329 L49.2352941,5.28671329 C50.407563,5.27412587 51.3655462,6.20559441 51.3781513,7.37622378 C51.3907563,8.54685315 50.4579832,9.5034965 49.2857143,9.51608392 C49.2731092,9.51608392 49.2478992,9.51608392 49.2352941,9.51608392 L46.0588235,9.51608392 L46.0588235,10.5734266 C46.0588235,12.3230769 47.4705882,13.7328671 49.2226891,13.7328671 L50.2941176,13.7328671 C51.4663866,13.7328671 52.4117647,14.6769231 52.4117647,15.8475524 C52.4117647,17.0181818 51.4663866,17.9622378 50.2941176,17.9622378 L49.1848739,17.9622378 Z" id="Shape"></path>
                    <path d="M60.289916,17.9622378 C56.2058824,17.9622378 52.9285714,14.6517483 52.9285714,10.586014 L52.9285714,2.11468531 C52.9411765,0.944055944 53.9117647,0.0125874126 55.0840336,0.0377622378 C56.2184874,0.0629370629 57.1386555,0.969230769 57.1638655,2.11468531 L57.1638655,5.28671329 L60.3403361,5.28671329 C61.512605,5.27412587 62.4705882,6.20559441 62.4831933,7.37622378 C62.4957983,8.54685315 61.5630252,9.5034965 60.3907563,9.51608392 C60.3781513,9.51608392 60.3529412,9.51608392 60.3403361,9.51608392 L57.1638655,9.51608392 L57.1638655,10.5734266 C57.1638655,12.3230769 58.5756303,13.7328671 60.3277311,13.7328671 C60.3277311,13.7328671 60.3277311,13.7328671 60.3277311,13.7328671 L61.3991597,13.7328671 C62.5714286,13.7454545 63.5042017,14.7020979 63.4915966,15.8727273 C63.4789916,17.0181818 62.5462185,17.9370629 61.3991597,17.9622378 L60.289916,17.9622378 Z" id="Shape"></path>
                    <path d="M78.3277311,11.6181818 C78.3277311,8.11888112 81.1386555,5.27412587 84.6428571,5.27412587 L87.8193277,5.27412587 C88.9915966,5.28671329 89.9243697,6.24335664 89.9117647,7.41398601 C89.8991597,8.55944056 88.9663866,9.47832168 87.8193277,9.5034965 L84.6428571,9.5034965 C83.4705882,9.5034965 82.5252101,10.4475524 82.5252101,11.6181818 C82.5252101,11.6181818 82.5252101,11.6181818 82.5252101,11.6181818 L82.5630252,15.8475524 C82.5630252,17.0181818 81.6176471,17.9622378 80.4453782,17.9622378 C80.4453782,17.9622378 80.4453782,17.9622378 80.4453782,17.9622378 C79.2731092,17.9622378 78.3277311,17.0181818 78.3277311,15.8475524 C78.3277311,15.8475524 78.3277311,15.8475524 78.3277311,15.8475524 L78.3277311,11.6181818 Z" id="Shape"></path>
                    <path d="M32.2941176,5.28671329 C31.1218487,5.28671329 30.1764706,6.23076923 30.1764706,7.4013986 C30.1764706,7.4013986 30.1764706,7.4013986 30.1764706,7.4013986 L30.1764706,11.6307692 C30.1764706,12.8013986 29.2310924,13.7454545 28.0588235,13.7454545 C26.8865546,13.7454545 25.9411765,12.8013986 25.9411765,11.6307692 L25.9411765,7.4013986 C25.9537815,6.23076923 25.0210084,5.27412587 23.8487395,5.26153846 C22.6764706,5.24895105 21.7184874,6.18041958 21.7058824,7.35104895 C21.7058824,7.36363636 21.7058824,7.38881119 21.7058824,7.4013986 L21.7058824,11.6307692 C21.7058824,12.8013986 20.7605042,13.7454545 19.5882353,13.7454545 C18.4159664,13.7454545 17.4705882,12.8013986 17.4705882,11.6307692 L17.4705882,7.4013986 C17.4831933,6.23076923 16.5504202,5.27412587 15.3781513,5.26153846 C14.2058824,5.24895105 13.2478992,6.18041958 13.2352941,7.35104895 C13.2352941,7.36363636 13.2352941,7.38881119 13.2352941,7.4013986 L13.2352941,11.6307692 C13.2352941,15.1300699 16.0714286,17.9748252 19.5882353,17.9748252 C21.2142857,17.9748252 22.7016807,17.358042 23.8235294,16.351049 C24.9453782,17.358042 26.4327731,17.9748252 28.0588235,17.9748252 C31.5630252,17.9748252 34.4117647,15.1426573 34.4117647,11.6307692 L34.4117647,7.4013986 C34.4117647,6.23076923 33.4663866,5.28671329 32.2941176,5.28671329 Z" id="Shape"></path>
                    <path d="M38.1176471,5.28671329 C36.9453782,5.28671329 36,6.23076923 36,7.4013986 C36,7.4013986 36,7.4013986 36,7.4013986 L36,15.8475524 C36,17.0181818 36.9453782,17.9622378 38.1176471,17.9622378 C39.289916,17.9622378 40.2352941,17.0181818 40.2352941,15.8475524 L40.2352941,7.4013986 C40.2352941,6.23076923 39.2773109,5.28671329 38.1176471,5.28671329 C38.1176471,5.28671329 38.1176471,5.28671329 38.1176471,5.28671329 Z" id="Shape"></path>
                    <ellipse id="Oval" cx="38.1176471" cy="2.11468531" rx="2.11764706" ry="2.11468531"></ellipse>
                    <path d="M76.7268908,10.5608392 C76.7268908,11.3034965 76.4117647,12.6629371 75.3151261,12.6629371 L68.3319328,12.6629371 C68.5714286,13.5944056 69.4159664,14.248951 70.3865546,14.248951 L74.8991597,14.248951 C75.9201681,14.248951 76.7521008,15.0797203 76.7521008,16.0993007 C76.7521008,16.0993007 76.7521008,16.0993007 76.7521008,16.0993007 C76.7521008,17.1188811 75.9201681,17.9496503 74.8991597,17.9496503 C74.8991597,17.9496503 74.8991597,17.9496503 74.8991597,17.9496503 L70.3865546,17.9496503 C66.8823529,17.9496503 64.0336134,15.0923077 64.0336134,11.0769231 C64.0336134,7.56503497 66.8823529,5.26153846 70.3865546,5.26153846 C73.8907563,5.28671329 76.7394958,7.65314685 76.7268908,10.5608392 Z M72.5042017,10.0321678 C72.5042017,9.06293706 71.5588235,8.26993007 70.3865546,8.26993007 C69.2142857,8.26993007 68.2689076,9.06293706 68.2689076,10.0321678 L72.5042017,10.0321678 Z" id="Shape"></path>
                </g>
                <g id="facebook" transform="translate(246.000000, 4.000000)" fill="#868F98">
                    <path d="M75.0285714,6.14482759 C73.7904762,5.83448276 72.4904762,5.83448276 71.252381,6.14482759 C69.3952381,6.64137931 68.0952381,7.82068966 67.7238095,9.74482759 C67.4761905,10.8 67.4761905,11.8551724 67.5380952,12.9103448 C67.6619048,15.3310345 69.147619,17.0689655 71.5,17.5655172 L71.6238095,17.5655172 C71.6857143,17.5655172 71.8095238,17.6275862 71.8714286,17.6275862 L71.9333333,17.6275862 C72.0571429,17.6275862 72.1809524,17.6896552 72.3047619,17.6896552 C72.7380952,17.7517241 73.3571429,17.7517241 73.7904762,17.6896552 L73.852381,17.6896552 C76.2666667,17.5655172 78.0619048,16.0758621 78.6190476,13.7172414 C78.9285714,12.4758621 78.9285714,11.1724138 78.6190476,9.86896552 C78.1857143,7.88275862 76.947619,6.64137931 75.0285714,6.14482759 Z M75.152381,13.0965517 C75.152381,13.1586207 75.152381,13.2206897 75.0904762,13.3448276 C74.8428571,14.4 74.1,15.0206897 73.047619,14.9586207 C71.9333333,14.8965517 71.1904762,14.2758621 71.0666667,13.1586207 C71.0047619,12.3517241 71.0047619,11.5448276 71.0666667,10.6758621 C71.1904762,9.37241379 71.9952381,8.68965517 73.1714286,8.68965517 C74.1619048,8.68965517 74.8428571,9.24827586 75.0904762,10.2413793 C75.3380952,11.1724138 75.2142857,12.9103448 75.152381,13.0965517 Z M79.9809524,0.434482759 L79.9809524,17.5034483 L83.5714286,17.5034483 L83.5714286,12.2896552 L86.9142857,17.5034483 L90.752381,17.5034483 L87.1619048,11.7931034 L90.752381,6.14482759 L86.9142857,6.14482759 L83.5714286,11.3586207 L83.5714286,0 L79.9809524,0.434482759 Z M41.4761905,12.2275862 C41.4761905,11.4206897 41.4761905,10.6137931 41.352381,9.86896552 C41.0428571,7.75862069 39.7428571,6.39310345 37.6380952,6.02068966 C36.8333333,5.89655172 35.9666667,5.89655172 35.1619048,5.95862069 C32.9333333,6.14482759 31.2619048,7.57241379 30.8904762,9.68275862 C30.7047619,10.9241379 30.6428571,12.2896552 30.8285714,13.5931034 C31.0761905,15.5172414 32.0047619,16.7586207 33.6142857,17.3172414 C34.3571429,17.5655172 37.947619,18.4965517 41.1047619,16.8827586 L40.9809524,16.3862069 C40.8571429,15.7655172 40.6714286,15.1448276 40.4857143,14.5241379 L40.4857143,14.462069 C40.4857143,14.462069 40.4238095,14.462069 40.3,14.5241379 C40.1761905,14.5862069 40.052381,14.5862069 39.8666667,14.6482759 L39.8047619,14.6482759 C39.3095238,14.7724138 38.6285714,14.9586207 37.8857143,15.0206897 C37.2666667,15.0827586 36.647619,15.0827586 36.0285714,15.0206897 C35.0380952,14.8344828 34.2333333,14.337931 34.2952381,13.0344828 L41.4761905,13.0344828 L41.4761905,12.9103448 L41.4761905,12.2275862 Z M38.2571429,10.6758621 L34.3571429,10.6758621 C34.3571429,9.93103448 34.4809524,9.1862069 35.1619048,8.75172414 C35.9047619,8.25517241 36.7095238,8.25517241 37.452381,8.68965517 C38.1952381,9.06206897 38.2571429,9.86896552 38.2571429,10.6758621 Z M30.3952381,16.6965517 C30.2714286,16.137931 30.0857143,15.5793103 29.9,15.0206897 L29.7142857,14.4 C29.7142857,14.4 25.5047619,16.4482759 24.8238095,12.537931 C24.7619048,11.9172414 24.7619048,11.2344828 24.8857143,10.6137931 C25.0714286,9.43448276 25.752381,8.8137931 26.9285714,8.68965517 C27.3,8.62758621 27.7333333,8.68965517 28.1047619,8.75172414 C28.6,8.8137931 29.1571429,9 29.7142857,9.12413793 C29.9,8.50344828 30.0857143,7.88275862 30.3333333,7.32413793 C30.3952381,7.26206897 30.3952381,7.13793103 30.3952381,7.07586207 L30.5190476,6.70344828 C30.5190476,6.64137931 30.4571429,6.57931034 30.3333333,6.57931034 C30.2095238,6.51724138 30.0857143,6.45517241 29.8380952,6.33103448 C29.7142857,6.26896552 29.652381,6.26896552 29.5285714,6.20689655 C29.4047619,6.20689655 29.3428571,6.20689655 29.3428571,6.20689655 C28.2285714,5.89655172 27.1142857,5.89655172 25.9380952,5.95862069 C23.5238095,6.20689655 21.852381,7.63448276 21.3571429,10.0551724 C21.1095238,11.2965517 21.1095238,12.6 21.4190476,13.8413793 C21.852381,15.7034483 22.9666667,16.9448276 24.8238095,17.5034483 C26.0619048,17.8758621 27.3,17.8758621 28.4761905,17.6896552 C28.9714286,17.6275862 29.7142857,17.3172414 30.2714286,17.1310345 L30.4571429,17.0689655 L30.3952381,16.6965517 Z M16.7142857,7.51034483 C16.652381,7.44827586 16.652381,7.44827586 16.5904762,7.3862069 L16.5285714,7.32413793 C15.7238095,6.51724138 15.4142857,6.26896552 14.7952381,6.08275862 C12.3190476,5.33793103 9.96666667,6.64137931 9.22380952,9.12413793 C8.72857143,10.6758621 8.72857143,12.2275862 9.03809524,13.7793103 C9.65714286,17.1310345 12.0714286,18.2482759 14.7333333,17.6896552 C15.5380952,17.5034483 16.1571429,17.0068966 16.7142857,16.3241379 C16.7142857,16.3241379 16.7761905,16.262069 16.8380952,16.137931 L16.8380952,17.6275862 L20.2428571,17.6275862 L20.2428571,6.08275862 L16.7142857,6.08275862 L16.7142857,7.51034483 Z M16.4047619,13.2827586 C16.2809524,14.337931 15.4142857,14.9586207 14.4238095,14.9586207 C13.3714286,14.8965517 12.6904762,14.337931 12.5047619,13.3448276 C12.2571429,11.9172414 12.5666667,10.2413793 12.5666667,10.1172414 C12.8142857,9.1862069 13.4952381,8.68965517 14.547619,8.75172414 C15.5380952,8.75172414 16.2809524,9.37241379 16.4047619,10.4275862 C16.5285714,11.3586207 16.5285714,12.3517241 16.4047619,13.2827586 Z M8.48095238,6.08275862 L5.88095238,6.08275862 L5.88095238,4.34482759 C6.06666667,2.73103448 8.72857143,3.04137931 8.72857143,3.04137931 L8.72857143,0.248275862 C8.66666667,0.248275862 3.4047619,-0.993103448 2.35238095,2.97931034 C2.16666667,3.47586207 2.22857143,5.77241379 2.22857143,6.08275862 L0,6.08275862 L0,9.12413793 L2.35238095,9.12413793 L2.35238095,17.4413793 L5.81904762,17.4413793 L5.81904762,9.12413793 L8.48095238,9.12413793 L8.79047619,6.08275862 L8.48095238,6.08275862 Z M62.7095238,6.14482759 C61.4714286,5.83448276 60.1714286,5.83448276 58.9333333,6.14482759 C57.0761905,6.64137931 55.7761905,7.82068966 55.4047619,9.74482759 C55.1571429,10.8 55.1571429,11.8551724 55.2190476,12.9103448 C55.3428571,15.3310345 56.8285714,17.0689655 59.1809524,17.5655172 L59.3047619,17.5655172 C59.3666667,17.5655172 59.4904762,17.6275862 59.552381,17.6275862 L59.6761905,17.6275862 C59.8,17.6275862 59.9238095,17.6896552 60.047619,17.6896552 C60.4809524,17.7517241 61.1,17.7517241 61.5333333,17.6896552 L61.5952381,17.6896552 C64.0095238,17.5655172 65.8047619,16.0758621 66.3619048,13.7172414 C66.6714286,12.4758621 66.6714286,11.1724138 66.3619048,9.86896552 C65.8666667,7.88275862 64.6285714,6.64137931 62.7095238,6.14482759 Z M62.8333333,13.0965517 C62.8333333,13.1586207 62.8333333,13.2206897 62.7714286,13.3448276 C62.5238095,14.4 61.7809524,15.0206897 60.7285714,14.9586207 C59.6142857,14.8965517 58.8714286,14.2758621 58.747619,13.1586207 C58.6857143,12.3517241 58.6857143,11.5448276 58.747619,10.6758621 C58.8714286,9.37241379 59.6761905,8.68965517 60.852381,8.68965517 C61.8428571,8.68965517 62.5238095,9.24827586 62.7714286,10.2413793 C63.0190476,11.1724138 62.8952381,12.9103448 62.8333333,13.0965517 Z M49.8952381,5.89655172 C48.5333333,5.77241379 47.3571429,6.14482759 46.3666667,7.3862069 L46.3666667,0 L42.7142857,0.434482759 L42.7142857,17.5034483 L46.3047619,17.5034483 L46.3047619,16.5103448 C46.8,16.8827586 47.2952381,17.2551724 47.7904762,17.5034483 C49.8952381,18.2482759 52.6809524,17.6275862 53.6095238,14.8344828 C54.2285714,13.0344828 54.2285714,11.1724138 53.7333333,9.31034483 C53.3619048,7.26206897 52,6.14482759 49.8952381,5.89655172 Z M50.452381,13.2827586 C50.2666667,14.4 49.4,15.0206897 48.347619,14.8965517 C48.1,14.8965517 47.852381,14.8344828 47.6047619,14.7103448 C46.7380952,14.2137931 46.4904762,13.4068966 46.4285714,12.8482759 C46.3666667,12.0413793 46.3047619,10.3655172 46.6761905,9.55862069 C46.9857143,8.93793103 47.6047619,8.62758621 48.347619,8.62758621 C49.4619048,8.56551724 50.2666667,9.12413793 50.3904762,10.2413793 C50.5761905,11.2965517 50.5761905,12.3517241 50.452381,13.2827586 Z" id="Shape"></path>
                </g>
                <g id="nasa" transform="translate(356.000000, 4.000000)" fill="#868F98">
                    <path d="M34.5782859,17.5373708 L43.4967037,17.5373708 C44.8304491,17.5373708 45.9231562,16.9949778 46.8096415,15.9075332 C47.6639885,14.8573117 48.1085703,13.6023634 48.1085703,12.1772526 C48.1085703,9.29512555 44.3858673,7.25849335 42.947672,7.25849335 L38.0626288,7.25849335 C37.6876803,7.25849335 37.3796869,7.08833087 37.1413267,6.81713442 C36.9029666,6.51137371 36.7663782,6.17370753 36.7663782,5.76425406 C36.7663782,5.28833087 36.9029666,4.88153619 37.1413267,4.54387001 C37.4145035,4.20620384 37.7573136,4.0014771 38.1670787,4.0014771 L47.3238566,4.0014771 L47.3238566,0.372230428 L37.9956737,0.372230428 C36.3217965,0.372230428 35.0228677,0.880059084 34.0988875,1.86381093 C33.2793572,2.77843427 32.8695921,4.0014771 32.8695921,5.45849335 C32.8695921,6.88360414 33.2793572,8.13855244 34.0988875,9.15420975 C35.0201895,10.2735598 36.1155748,10.850517 37.4466419,10.850517 L43.0842604,10.850517 C43.4243923,10.850517 43.7002472,10.951551 43.9037907,11.2227474 C44.1421508,11.4939439 44.2466007,11.8342688 44.2466007,12.2064993 C44.2466007,12.6478582 44.0751957,13.0546529 43.802019,13.3949778 C43.4940255,13.7007386 43.1538937,13.870901 42.7093119,13.870901 L33.6891224,13.870901 L33.552534,13.6342688 L30.1699629,2.84756278 L29.9985579,2.50723781 C29.1790276,0.84549483 27.8131438,0.0319054653 25.9330449,0.0319054653 C24.907293,0.0319054653 23.9859909,0.268537666 23.1664607,0.779025111 C22.3121137,1.28685377 21.7657602,2.03397341 21.4577668,2.983161 L16.9128554,17.5001477 L21.0480016,17.534712 L25.2152864,4.61033973 C25.3170581,4.20354505 25.5580964,3.99881832 25.8634116,3.99881832 C26.0348166,3.99881832 26.171405,4.06528804 26.2731768,4.1689808 C26.3749485,4.30457903 26.4445818,4.44017725 26.4793984,4.61033973 L30.6814998,17.534712 L34.5782859,17.5373708 Z M3.82715286,5.66587888 L3.82715286,17.5028065 L0,17.5028065 L0,4.37636632 C0,2.68005908 0.409765142,1.4915805 1.29892872,0.7816839 C1.98187062,0.271196455 3.00762258,0 4.44046148,0 C5.60280181,0 6.59373712,0.340324963 7.4802225,0.983751846 C8.36938607,1.62717873 8.94787804,2.5098966 9.25587145,3.59468242 L11.7492789,12.3128508 L12.1590441,13.5013294 C12.1938607,13.7379616 12.3304491,13.9081241 12.4670375,14.0437223 C12.6384425,14.1793205 12.8071693,14.248449 13.013391,14.1793205 C13.3562011,14.1447563 13.5249279,13.9426883 13.5249279,13.6369276 L13.5249279,0.406794682 L17.4538525,0.406794682 L17.4538525,13.4667651 C17.4538525,14.9264402 17.1137206,16.011226 16.3959621,16.7902511 C15.7130202,17.5692762 14.6872682,17.9787297 13.3213844,17.9787297 C12.1242274,17.9787297 11.1332921,17.7420975 10.3485785,17.3353028 C9.39245983,16.8593796 8.77647301,16.1149188 8.50329625,15.1311669 L5.63761846,5.18995569 L5.43139679,4.5465288 C5.36176349,4.3098966 5.22517511,4.13973412 5.05644829,3.96957164 C4.88504326,3.83397341 4.68149979,3.79940916 4.47527812,3.83397341 C4.26905645,3.86853767 4.13514627,3.96957164 3.99587969,4.17429838 C3.88339514,4.3577548 3.82447466,4.5704579 3.82447466,4.78581979 L3.82715286,5.66587888 Z M64.986609,17.5373708 L60.5461475,2.85022157 L60.3747425,2.5098966 C59.5552122,0.848153619 58.1893284,0.0345642541 56.3092295,0.0345642541 C55.2834775,0.0345642541 54.3621755,0.271196455 53.5426452,0.7816839 C52.6882983,1.28951256 52.1419448,2.0366322 51.8339514,2.98581979 L47.28904,17.5028065 L51.4241862,17.5373708 L55.591471,4.61299852 C55.6932427,4.20620384 55.934281,4.0014771 56.2395962,4.0014771 C56.4110012,4.0014771 56.5475896,4.06794682 56.6493614,4.17163959 C56.7538113,4.30723781 56.8207664,4.44283604 56.855583,4.61299852 L61.0576844,17.5373708 L64.986609,17.5373708 Z" id="Shape"></path>
                </g>
                <g id="intel" transform="translate(439.000000, 0.000000)" fill="#868F98">
                    <path d="M33.5877551,6.0443299 C33.7071429,6.0443299 33.8265306,6.07113402 33.9326531,6.13814433 C34.0387755,6.19175258 34.1183673,6.28556701 34.1846939,6.39278351 C34.2510204,6.5 34.277551,6.62061856 34.277551,6.74123711 C34.277551,6.86185567 34.2510204,6.96907216 34.1846939,7.07628866 C34.1316327,7.18350515 34.0520408,7.27731959 33.9326531,7.33092784 C33.8265306,7.38453608 33.7071429,7.42474227 33.5877551,7.42474227 C33.4683673,7.42474227 33.3489796,7.39793814 33.2428571,7.33092784 C33.1367347,7.27731959 33.0571429,7.18350515 32.9908163,7.07628866 C32.9244898,6.96907216 32.8979592,6.84845361 32.8979592,6.74123711 C32.8979592,6.62061856 32.9244898,6.5 32.9908163,6.39278351 C33.0571429,6.28556701 33.1367347,6.20515464 33.2428571,6.13814433 C33.3622449,6.08453608 33.4683673,6.0443299 33.5877551,6.0443299 Z M33.5877551,6.16494845 C33.494898,6.16494845 33.3887755,6.19175258 33.2959184,6.24536082 C33.2030612,6.29896907 33.1367347,6.36597938 33.0836735,6.45979381 C33.0306122,6.55360825 33.0040816,6.64742268 33.0040816,6.74123711 C33.0040816,6.83505155 33.0306122,6.92886598 33.0836735,7.02268041 C33.1367347,7.11649485 33.2030612,7.18350515 33.2959184,7.2371134 C33.3887755,7.29072165 33.4816327,7.30412371 33.5877551,7.30412371 C33.6938776,7.30412371 33.7867347,7.27731959 33.8795918,7.2371134 C33.972449,7.18350515 34.0387755,7.11649485 34.0918367,7.02268041 C34.144898,6.92886598 34.1714286,6.83505155 34.1714286,6.74123711 C34.1714286,6.64742268 34.144898,6.54020619 34.0918367,6.45979381 C34.0387755,6.36597938 33.972449,6.29896907 33.8795918,6.24536082 C33.7867347,6.19175258 33.6806122,6.16494845 33.5877551,6.16494845 Z M33.2826531,7.11649485 L33.2826531,6.37938144 L33.5346939,6.37938144 C33.627551,6.37938144 33.6938776,6.37938144 33.7336735,6.39278351 C33.7734694,6.40618557 33.8132653,6.43298969 33.8265306,6.45979381 C33.8530612,6.48659794 33.8663265,6.52680412 33.8663265,6.56701031 C33.8663265,6.62061856 33.8397959,6.66082474 33.8,6.70103093 C33.7602041,6.74123711 33.7071429,6.76804124 33.6408163,6.76804124 C33.6806122,6.7814433 33.7071429,6.79484536 33.7204082,6.80824742 C33.7469388,6.83505155 33.7867347,6.88865979 33.8265306,6.9556701 L33.9193878,7.10309278 L33.7734694,7.10309278 L33.7071429,6.98247423 C33.6408163,6.88865979 33.6010204,6.83505155 33.5612245,6.80824742 C33.5479592,6.79484536 33.5081633,6.7814433 33.4683673,6.7814433 L33.4020408,6.7814433 L33.4020408,7.08969072 C33.4020408,7.11649485 33.2826531,7.11649485 33.2826531,7.11649485 Z M33.4020408,6.70103093 L33.5479592,6.70103093 C33.6142857,6.70103093 33.6673469,6.68762887 33.6938776,6.6742268 C33.7204082,6.64742268 33.7336735,6.62061856 33.7336735,6.59381443 C33.7336735,6.56701031 33.7336735,6.55360825 33.7204082,6.54020619 C33.7071429,6.52680412 33.6938776,6.51340206 33.6540816,6.5 C33.6408163,6.48659794 33.6010204,6.48659794 33.5346939,6.48659794 L33.4020408,6.48659794 L33.4020408,6.70103093 Z M13.2122449,11.0298969 C13.7959184,11.0298969 14.0346939,11.3247423 14.0346939,11.7938144 L14.0346939,17.3958763 L16.0377551,17.3958763 L16.0377551,11.7938144 C16.0377551,10.6546392 15.4408163,9.39484536 13.6897959,9.39484536 L9.56428571,9.39484536 L9.56428571,17.3958763 L11.5540816,17.3958763 L11.5540816,11.0298969 L13.2122449,11.0298969 Z M25.1377551,10.9360825 C24.4479592,10.9360825 23.9306122,11.2979381 23.705102,11.7804124 C23.572449,12.0752577 23.5326531,12.2896907 23.5061224,12.6515464 L26.5969388,12.6515464 C26.5438776,11.7670103 26.1459184,10.9360825 25.1377551,10.9360825 Z M23.5061224,14.0185567 C23.5061224,15.0505155 24.1561224,15.814433 25.2836735,15.814433 C26.1591837,15.814433 26.6102041,15.5597938 27.1142857,15.0505155 L28.3479592,16.256701 C27.5520408,17.0340206 26.7295918,17.5164948 25.2704082,17.5164948 C23.3602041,17.5164948 21.5295918,16.471134 21.5295918,13.3752577 C21.5295918,10.7484536 23.1214286,9.26082474 25.2306122,9.26082474 C27.3397959,9.26082474 28.5602041,11.0030928 28.5602041,13.2814433 L28.5602041,14.0185567 L23.5061224,14.0185567 Z M19.844898,17.3824742 C18.2132653,17.3824742 17.5234694,16.2298969 17.5234694,15.1041237 L17.5234694,7.21030928 L19.5132653,7.21030928 L19.5132653,9.39484536 L21.0255102,9.39484536 L21.0255102,11.0298969 L19.5132653,11.0298969 L19.5132653,14.9835052 C19.5132653,15.4525773 19.7387755,15.6938144 20.2030612,15.6938144 L21.0255102,15.6938144 L21.0255102,17.3824742 L19.844898,17.3824742 Z M5.78367347,6.35257732 L7.8,6.35257732 L7.8,8.28247423 L5.78367347,8.28247423 L5.78367347,6.35257732 Z M7.78673469,9.39484536 L5.78367347,9.39484536 L5.78367347,15.3453608 C5.78367347,16.4041237 6.2877551,17.328866 7.8,17.4762887 L7.78673469,9.39484536 Z M31.7571429,6.07113402 L29.7408163,6.07113402 L29.7408163,15.171134 C29.7408163,16.2298969 30.244898,17.1546392 31.7571429,17.3020619 L31.7571429,6.07113402 Z M38.7877551,7.37113402 C36.9438776,-1.62164948 19.6989796,-2.19793814 8.59591837,4.66391753 L8.59591837,5.42783505 C19.6857143,-0.36185567 35.444898,-0.335051546 36.877551,7.96082474 C37.3683673,10.7082474 35.8428571,13.5628866 33.1102041,15.2113402 L33.1102041,17.3690722 C36.4,16.1494845 39.7428571,12.2092784 38.7877551,7.37113402 Z M18.5581633,23.1319588 C10.8908163,23.8556701 2.90510204,22.7298969 1.77755102,16.6587629 C1.22040816,13.656701 2.57346939,10.4804124 4.36428571,8.51030928 L4.36428571,7.45154639 C1.14081633,10.3195876 -0.610204082,13.9381443 0.41122449,18.2 C1.69795918,23.6948454 8.55612245,26.7907216 19.022449,25.7587629 C23.1744898,25.356701 28.6,24.0030928 32.3540816,21.8989691 L32.3540816,18.9237113 C28.944898,20.9876289 23.2806122,22.7030928 18.5581633,23.1319588 Z" id="Shape"></path>
                </g>
                <g id="microsoft" transform="translate(497.000000, 4.000000)" fill="#868F98">
                    <path d="M84.9660136,8.14382022 L84.9660136,6.66067416 L83.1103559,6.66067416 L83.1103559,4.35505618 L83.0491803,4.3752809 L81.3056777,4.90449438 L81.2716913,4.91460674 L81.2716913,6.66067416 L78.5221911,6.66067416 L78.5221911,5.68651685 C78.5221911,5.23483146 78.6241503,4.88764045 78.8246701,4.65505618 C79.0251899,4.4258427 79.3106757,4.31123596 79.6743303,4.31123596 C79.9360256,4.31123596 80.2079168,4.37191011 80.4798081,4.49325843 L80.5477809,4.52359551 L80.5477809,2.96629213 L80.5171931,2.95617978 C80.2622951,2.86516854 79.9156337,2.81797753 79.487405,2.81797753 C78.9470212,2.81797753 78.4542183,2.93595506 78.0259896,3.16516854 C77.5977609,3.39775281 77.2578968,3.72808989 77.0233906,4.1494382 C76.7888844,4.57078652 76.6665334,5.05617978 76.6665334,5.59213483 L76.6665334,6.66067416 L75.37505,6.66067416 L75.37505,8.14382022 L76.6665334,8.14382022 L76.6665334,14.3865169 L78.5221911,14.3865169 L78.5221911,8.14382022 L81.2716913,8.14382022 L81.2716913,12.111236 C81.2716913,13.7460674 82.04998,14.5719101 83.5827669,14.5719101 C83.8342663,14.5719101 84.0993603,14.541573 84.3712515,14.4842697 C84.6465414,14.4269663 84.8334666,14.3662921 84.9456218,14.3022472 L84.9694122,14.288764 L84.9694122,12.7921348 L84.8946421,12.8426966 C84.7926829,12.9101124 84.6669332,12.9640449 84.5207917,13.0044944 C84.3746501,13.0449438 84.2489004,13.0651685 84.1537385,13.0651685 C83.7934826,13.0651685 83.5283886,12.9707865 83.3652539,12.7786517 C83.1987205,12.5865169 83.1137545,12.252809 83.1137545,11.7876404 L83.1137545,8.14382022 L84.9660136,8.14382022 Z M71.2321072,13.0685393 C70.5591763,13.0685393 70.0289884,12.8460674 69.6551379,12.411236 C69.2778888,11.9730337 69.087565,11.3494382 69.087565,10.5539326 C69.087565,9.73483146 69.2778888,9.09438202 69.6551379,8.64606742 C70.0289884,8.20449438 70.5557777,7.97865169 71.2185126,7.97865169 C71.8608557,7.97865169 72.3740504,8.19438202 72.7411036,8.61910112 C73.1081567,9.04382022 73.295082,9.68089888 73.295082,10.5101124 C73.295082,11.3494382 73.1183527,11.9932584 72.7716913,12.4247191 C72.42503,12.852809 71.9084366,13.0685393 71.2321072,13.0685393 Z M71.3136745,6.4752809 C70.0289884,6.4752809 69.0093962,6.8494382 68.2820872,7.58426966 C67.5547781,8.31910112 67.1877249,9.34044944 67.1877249,10.6146067 C67.1877249,11.8247191 67.5479808,12.7955056 68.2582967,13.5067416 C68.9686126,14.2146067 69.9338265,14.5752809 71.1301479,14.5752809 C72.3740504,14.5752809 73.3766493,14.1977528 74.1005598,13.4494382 C74.8278689,12.7044944 75.194922,11.6932584 75.194922,10.4494382 C75.194922,9.22247191 74.8482607,8.24157303 74.1685326,7.53707865 C73.4820072,6.83258427 72.5235906,6.4752809 71.3136745,6.4752809 Z M64.1935226,6.4752809 C63.320072,6.4752809 62.5961615,6.69775281 62.0455818,7.13258427 C61.4916034,7.57078652 61.2095162,8.14719101 61.2095162,8.84494382 C61.2095162,9.20898876 61.2706917,9.52921348 61.3896441,9.80224719 C61.5085966,10.0752809 61.6955218,10.3179775 61.9436226,10.5202247 C62.1883247,10.7224719 62.5689724,10.9314607 63.0719712,11.147191 C63.4934026,11.3191011 63.8094762,11.4640449 64.009996,11.5820225 C64.2071172,11.6932584 64.3430628,11.8078652 64.4212315,11.9191011 C64.4960016,12.0269663 64.5367853,12.1752809 64.5367853,12.3573034 C64.5367853,12.8764045 64.1459416,13.1292135 63.3370652,13.1292135 C63.0379848,13.1292135 62.6981208,13.0685393 62.3242703,12.9438202 C61.9538185,12.8224719 61.6037585,12.647191 61.2842863,12.4213483 L61.2061176,12.3674157 L61.2061176,14.1370787 L61.2333067,14.1505618 C61.495002,14.2719101 61.8280688,14.3730337 62.2155138,14.4505618 C62.6063575,14.5314607 62.9598161,14.5719101 63.2656937,14.5719101 C64.2139144,14.5719101 64.9786086,14.3494382 65.5359856,13.911236 C66.0967613,13.4696629 66.3822471,12.8797753 66.3822471,12.1550562 C66.3822471,11.6359551 66.2293083,11.1876404 65.9268293,10.8269663 C65.6277489,10.4696629 65.1077569,10.1426966 64.3838465,9.85280899 C63.8060776,9.62359551 63.4356257,9.43146067 63.2826869,9.28651685 C63.1365454,9.14494382 63.0617753,8.94606742 63.0617753,8.68988764 C63.0617753,8.46404494 63.1535386,8.28539326 63.3438625,8.14044944 C63.5341863,7.99550562 63.7992803,7.91797753 64.1323471,7.91797753 C64.4416234,7.91797753 64.7576969,7.96516854 65.0703719,8.06292135 C65.3830468,8.15730337 65.6617353,8.28539326 65.8894442,8.44044944 L65.9642143,8.49101124 L65.9642143,6.81235955 L65.9336265,6.7988764 C65.7195122,6.70786517 65.4408237,6.63033708 65.1009596,6.56966292 C64.7712915,6.50561798 64.4620152,6.4752809 64.1935226,6.4752809 Z M56.3732507,13.0685393 C55.7003199,13.0685393 55.1701319,12.8460674 54.7962815,12.411236 C54.4190324,11.9730337 54.2287085,11.3494382 54.2287085,10.5539326 C54.2287085,9.73483146 54.4190324,9.09438202 54.7962815,8.64606742 C55.1701319,8.20449438 55.6969212,7.97865169 56.3596561,7.97865169 C57.0019992,7.97865169 57.5151939,8.19438202 57.8822471,8.61910112 C58.2493003,9.04382022 58.4362255,9.68089888 58.4362255,10.5101124 C58.4362255,11.3494382 58.2594962,11.9932584 57.9128349,12.4247191 C57.5695722,12.852809 57.0529788,13.0685393 56.3732507,13.0685393 Z M56.4582167,6.4752809 C55.1735306,6.4752809 54.1539384,6.8494382 53.4266293,7.58426966 C52.6993203,8.31910112 52.3322671,9.34044944 52.3322671,10.6146067 C52.3322671,11.8247191 52.692523,12.7955056 53.4028389,13.5067416 C54.1131547,14.2146067 55.0783687,14.5752809 56.2746901,14.5752809 C57.5185926,14.5752809 58.5211915,14.1977528 59.245102,13.4494382 C59.972411,12.7044944 60.3394642,11.6932584 60.3394642,10.4494382 C60.3394642,9.22247191 59.9928029,8.24157303 59.3130748,7.53707865 C58.6265494,6.83258427 57.6647341,6.4752809 56.4582167,6.4752809 Z M49.5147941,7.9988764 L49.5147941,6.66067416 L47.6829268,6.66067416 L47.6829268,14.3865169 L49.5147941,14.3865169 L49.5147941,10.4359551 C49.5147941,9.76516854 49.6677329,9.21235955 49.9702119,8.79438202 C50.2692923,8.38314607 50.6669332,8.1741573 51.1563375,8.1741573 C51.3228709,8.1741573 51.5063974,8.2011236 51.7069172,8.25505618 C51.9040384,8.30898876 52.0501799,8.36629213 52.1351459,8.42696629 L52.2133147,8.48089888 L52.2133147,6.64719101 L52.1827269,6.63370787 C52.0127949,6.56292135 51.7714914,6.5258427 51.4656138,6.5258427 C51.0067973,6.5258427 50.5921631,6.6741573 50.2387045,6.96067416 C49.9294282,7.21348315 49.705118,7.56404494 49.5351859,7.99550562 L49.5147941,7.99550562 L49.5147941,7.9988764 Z M44.3998401,6.4752809 C43.5603758,6.4752809 42.8092763,6.65393258 42.1703319,7.00786517 C41.5313874,7.36179775 41.0385846,7.86404494 40.7021192,8.50786517 C40.3656537,9.14831461 40.1957217,9.89325843 40.1957217,10.7292135 C40.1957217,11.4606742 40.3588565,12.1280899 40.6851259,12.7179775 C41.0113954,13.3078652 41.4736106,13.7730337 42.0547781,14.0932584 C42.6393443,14.4134831 43.3122751,14.5752809 44.0565774,14.5752809 C44.9266293,14.5752809 45.6709316,14.4033708 46.2656937,14.0629213 L46.2894842,14.0494382 L46.2894842,12.3842697 L46.2113155,12.441573 C45.9428229,12.6370787 45.6403439,12.7921348 45.3140744,12.9033708 C44.9912035,13.0146067 44.6955218,13.0719101 44.4372251,13.0719101 C43.7167133,13.0719101 43.1423431,12.8494382 42.7209116,12.4078652 C42.2994802,11.9662921 42.0887645,11.3494382 42.0887645,10.5707865 C42.0887645,9.78876404 42.3096761,9.15168539 42.7481008,8.68651685 C43.1831267,8.22134831 43.7608956,7.98202247 44.4678129,7.98202247 C45.0693723,7.98202247 45.6573371,8.18426966 46.2113155,8.58539326 L46.2894842,8.63932584 L46.2894842,6.88651685 L46.2656937,6.87303371 C46.0583766,6.75842697 45.7728908,6.66067416 45.4194322,6.58988764 C45.0727709,6.51235955 44.7261096,6.4752809 44.3998401,6.4752809 Z M38.9348261,6.66067416 L37.1029588,6.66067416 L37.1029588,14.3865169 L38.9348261,14.3865169 L38.9348261,6.66067416 Z M38.037585,3.37078652 C37.735106,3.37078652 37.4734106,3.47191011 37.2558976,3.6741573 C37.0383846,3.87640449 36.9296281,4.13258427 36.9296281,4.43258427 C36.9296281,4.72921348 37.0383846,4.97865169 37.252499,5.1741573 C37.4666134,5.36966292 37.7283087,5.47078652 38.037585,5.47078652 C38.3434626,5.47078652 38.6085566,5.36966292 38.8260696,5.1741573 C39.0435826,4.9752809 39.1523391,4.7258427 39.1523391,4.42921348 C39.1523391,4.13932584 39.0435826,3.88651685 38.8328669,3.68089888 C38.6221511,3.4752809 38.3570572,3.37078652 38.037585,3.37078652 Z M33.4664134,6.09101124 L33.4664134,14.3865169 L35.3356657,14.3865169 L35.3356657,3.60674157 L32.7493003,3.60674157 L29.4594162,11.6123596 L26.2680928,3.60674157 L23.5763695,3.60674157 L23.5763695,14.3865169 L25.3334666,14.3865169 L25.3334666,6.09101124 L25.3946421,6.09101124 L28.7660936,14.3865169 L30.0915634,14.3865169 L33.4086365,6.09101124 L33.4664134,6.09101124 Z" id="Shape"></path>
                    <polygon id="Shape" points="8.61895242 8.55168539 0 8.55168539 0 0.00337078652 8.61895242 0.00337078652"></polygon>
                    <polygon id="Shape" points="18.1351459 8.55168539 9.51619352 8.55168539 9.51619352 0.00337078652 18.1351459 0.00337078652"></polygon>
                    <polygon id="Shape" points="8.61895242 17.9966292 0 17.9966292 0 9.44831461 8.61895242 9.44831461"></polygon>
                    <polygon id="Shape" points="18.1351459 17.9966292 9.51619352 17.9966292 9.51619352 9.44831461 18.1351459 9.44831461"></polygon>
                </g>
                <g id="ideo" transform="translate(600.000000, 4.000000)">
                    <path d="M59.1272204,0.85653075 L59.1272204,16.5990308 L75.1248442,16.5990308 L75.1248442,0.85653075 L59.1272204,0.85653075 Z M39.6757353,0.89403075 L39.6757353,16.6365308 L55.6282105,16.6365308 L55.6282105,0.89403075 L39.6757353,0.89403075 Z M20.3897947,0.93903075 L20.3897947,16.6815307 L36.3422699,16.6815307 L36.3422699,0.93903075 L20.3897947,0.93903075 Z M1.05870558,1.01403075 L1.05870558,16.7115307 L17.0111808,16.7115307 L17.0111808,1.01403075 L1.05870558,1.01403075 Z" id="rect2450" fill="#FFFFFF"></path>
                    <path d="M0.0729630099,0.07653075 L0.0729630099,17.9040308 L17.9592996,17.9040308 L17.9592996,0.07653075 L0.0729630099,0.07653075 Z M19.4040521,0.07653075 L19.4040521,17.9040308 L37.2903888,17.9040308 L37.2903888,0.07653075 L19.4040521,0.07653075 Z M38.6899927,0.07653075 L38.6899927,17.9040308 L56.5763293,17.9040308 L56.5763293,0.07653075 L38.6899927,0.07653075 Z M58.0210818,0.07653075 L58.0210818,17.9040308 L75.9074185,17.9040308 L75.9074185,0.07653075 L58.0210818,0.07653075 Z M66.9454383,1.87653075 C70.8808838,1.87653075 74.0563293,5.08653075 74.0563293,9.00903075 C74.0563293,12.9315307 70.873359,16.0965307 66.9454383,16.0965307 C63.0099927,16.0965307 59.8345472,12.9240308 59.8345472,9.00903075 C59.8270224,5.08653075 63.0099927,1.87653075 66.9454383,1.87653075 Z M2.70662638,2.70153075 L15.3707848,2.70153075 L15.3707848,4.91403075 L10.1034581,4.91403075 L10.1034581,13.0740307 L15.3707848,13.0740307 L15.3707848,15.2490307 L2.66900261,15.2490307 L2.66900261,13.0740307 L7.89118083,13.0740307 L7.89118083,4.91403075 L2.70662638,4.91403075 L2.70662638,2.70153075 Z M21.9549432,2.70153075 L23.6404878,2.70153075 L28.3284086,2.70153075 C31.8499927,2.70153075 34.7018739,5.54403075 34.7018739,9.05403075 C34.7018739,12.5640308 31.8499927,15.2865308 28.3284086,15.2865308 L23.6404878,15.2865308 L21.9549432,15.2865308 L21.9549432,2.70153075 Z M41.3236561,2.70153075 L53.9878145,2.70153075 L53.9878145,4.91403075 L43.5058343,4.91403075 L43.5058343,7.86153075 L51.7755373,7.86153075 L51.7755373,10.1190307 L43.5058343,10.1190307 L43.5058343,13.1115307 L53.9953392,13.1115307 L53.9953392,15.2865307 L41.3236561,15.2865307 L41.3236561,2.70153075 Z M66.9454383,4.33653075 C64.3719729,4.33653075 62.2951412,6.44403075 62.2951412,9.00903075 C62.2951412,11.5740307 64.3644482,13.6440307 66.9454383,13.6440307 C69.5189036,13.6440307 71.5957353,11.5815307 71.5957353,9.00903075 C71.5957353,6.43653075 69.5189036,4.33653075 66.9454383,4.33653075 Z M28.3284086,4.86903075 L25.24326,4.90653075 L24.1295967,4.90653075 L24.1295967,13.0665308 L25.24326,13.0665308 L28.3284086,13.0665308 C30.6309828,13.0665308 32.5196957,11.3040308 32.5196957,9.00903075 C32.5196957,6.71403075 30.6309828,4.86903075 28.3284086,4.86903075 Z" id="path2999" fill="#868F98"></path>
                </g>
                <g id="basecamp" transform="translate(695.000000, 0.000000)" fill="#868F98">
                    <path d="M40.4916667,19.7072464 L36.7815,19.7072464 L36.7815,6.7826087 L40.5481667,6.7826087 C43.4485,6.7826087 44.8421667,8.10144928 44.8421667,10.1362319 C44.8421667,11.4927536 44.0888333,12.3594203 42.9776667,12.8304348 C44.4278333,13.2826087 45.3695,14.2246377 45.3695,15.9391304 C45.3695,18.4826087 43.5238333,19.7072464 40.4916667,19.7072464 Z M40.4163333,8.66666667 L39.1733333,8.66666667 L39.1733333,12.0956522 L40.3033333,12.0956522 C41.7723333,12.0956522 42.5256667,11.4362319 42.5256667,10.3246377 C42.5445,9.30724638 41.923,8.66666667 40.4163333,8.66666667 Z M40.454,13.8478261 L39.1733333,13.8478261 L39.1733333,17.8043478 L40.4916667,17.8043478 C42.0736667,17.8043478 42.9776667,17.1449275 42.9776667,15.8637681 C42.9776667,14.5826087 42.1113333,13.8478261 40.454,13.8478261 Z M52.0741667,19.6884058 L51.8858333,18.5014493 C51.1513333,19.273913 50.2096667,19.8768116 48.8725,19.8768116 C47.3281667,19.8768116 46.3111667,18.9347826 46.3111667,17.3710145 C46.3111667,15.1855072 48.1191667,14.2246377 51.754,13.8666667 L51.754,13.6028986 C51.754,12.6231884 51.189,12.2463768 50.1908333,12.2463768 C49.1361667,12.2463768 48.1568333,12.5478261 47.1775,12.9811594 L46.895,11.1724638 C48.025,10.7014493 49.2491667,10.4376812 50.4921667,10.4376812 C52.8275,10.4376812 53.9951667,11.3043478 53.9951667,13.4710145 L53.9951667,19.6695652 L52.0741667,19.6884058 Z M51.754,15.1666667 C49.155,15.5057971 48.5335,16.2594203 48.5335,17.126087 C48.5335,17.7855072 48.9478333,18.1811594 49.6446667,18.1811594 C50.4168333,18.1811594 51.1513333,17.8231884 51.754,17.2014493 L51.754,15.1666667 Z M58.9295,19.857971 C57.7053333,19.8391304 56.5,19.5376812 55.4076667,18.9724638 L55.709,17.1072464 C56.6883333,17.7478261 57.8748333,18.1811594 59.0048333,18.1811594 C59.9841667,18.1811594 60.5115,17.8231884 60.5115,17.2391304 C60.5115,16.5985507 60.116,16.3347826 58.6658333,15.9768116 C56.4811667,15.4115942 55.5583333,14.7710145 55.5583333,13.1318841 C55.5583333,11.5681159 56.8013333,10.4753623 58.8918333,10.4753623 C59.9841667,10.4565217 61.0576667,10.6826087 62.0558333,11.115942 L61.7545,13 C60.8881667,12.4913043 59.89,12.2086957 58.8918333,12.1710145 C58.0443333,12.1710145 57.63,12.4913043 57.63,13 C57.63,13.5086957 57.969,13.7536232 59.325,14.1115942 C61.6603333,14.6956522 62.5643333,15.3362319 62.5643333,17.0507246 C62.5831667,18.8217391 61.3025,19.8768116 58.9295,19.857971 Z M71.529,15.6188406 L65.7283333,15.6188406 C65.8413333,17.3710145 66.783,18.1434783 68.1578333,18.1434783 C69.3255,18.1434783 70.2671667,17.7101449 71.2653333,17.0130435 L71.529,18.7652174 C70.4743333,19.5 69.2125,19.8956522 67.913,19.8768116 C65.3893333,19.8768116 63.4871667,18.426087 63.4871667,15.1666667 C63.4871667,12.2275362 65.2575,10.4376812 67.6116667,10.4376812 C70.3236667,10.4376812 71.5478333,12.4724638 71.5478333,15.0536232 C71.5478333,15.2608696 71.529,15.4869565 71.529,15.6188406 Z M67.5551667,12.0202899 C66.6511667,12.0202899 65.9166667,12.7362319 65.766,14.2057971 L69.3631667,14.2057971 C69.1936667,12.8115942 68.6286667,12.0202899 67.5551667,12.0202899 Z M76.7458333,19.8768116 C74.241,19.8768116 72.4518333,18.1811594 72.4518333,15.2231884 C72.4518333,12.0768116 74.4105,10.4565217 76.8211667,10.4565217 C77.8193333,10.4376812 78.7986667,10.7014493 79.6461667,11.2289855 L79.326,13.2449275 C78.648,12.6985507 77.8193333,12.3971014 76.953,12.3971014 C75.6535,12.3971014 74.7306667,13.357971 74.7306667,15.1478261 C74.7306667,17.0130435 75.7476667,17.9173913 77.1036667,17.9173913 C77.8946667,17.9173913 78.6103333,17.7101449 79.439,17.0507246 L79.7403333,18.9724638 C78.874,19.5942029 77.8193333,19.9144928 76.7458333,19.8768116 Z M86.0683333,19.7072464 L85.88,18.5202899 C85.1455,19.2927536 84.2038333,19.8956522 82.8666667,19.8956522 C81.3223333,19.8956522 80.3053333,18.9536232 80.3053333,17.3898551 C80.3053333,15.2043478 82.0945,14.2434783 85.7481667,13.8855072 L85.7481667,13.6217391 C85.7481667,12.642029 85.1831667,12.2652174 84.185,12.2652174 C83.1303333,12.2652174 82.151,12.5666667 81.1716667,13 L80.8891667,11.1913043 C82.0191667,10.7202899 83.2433333,10.4565217 84.4863333,10.4565217 C86.8216667,10.4565217 87.9893333,11.3231884 87.9893333,13.4898551 L87.9893333,19.6884058 L86.0683333,19.7072464 Z M85.7481667,15.1855072 C83.1491667,15.5057971 82.5276667,16.2782609 82.5276667,17.126087 C82.5276667,17.7855072 82.942,18.1811594 83.6388333,18.1811594 C84.411,18.1811594 85.1455,17.8231884 85.7481667,17.2014493 L85.7481667,15.1855072 Z M100.607667,19.7072464 L100.607667,13.7913043 C100.607667,13 100.325167,12.4536232 99.4965,12.4536232 C98.7996667,12.4536232 98.1405,12.9057971 97.5001667,13.584058 L97.5001667,19.7072464 L95.259,19.7072464 L95.259,13.7913043 C95.259,13 94.9576667,12.4536232 94.129,12.4536232 C93.4321667,12.4536232 92.773,12.9057971 92.1326667,13.584058 L92.1326667,19.7072464 L89.8915,19.7072464 L89.8915,10.6637681 L91.7936667,10.6637681 L92.0008333,11.9449275 C92.8483333,11.1347826 93.7711667,10.4753623 94.9765,10.4753623 C96.276,10.4753623 96.954,11.0594203 97.293,11.9449275 C98.1028333,11.1347826 99.0821667,10.4753623 100.306333,10.4753623 C102.001333,10.4753623 102.848833,11.5115942 102.848833,13.1884058 L102.848833,19.7072464 L100.607667,19.7072464 Z M109.045,19.8014493 C108.329333,19.8202899 107.613667,19.6884058 106.9545,19.4434783 L106.9545,22.8536232 L104.713333,23.1927536 L104.713333,10.6449275 L106.6155,10.6449275 L106.822667,11.8884058 C107.463,11.1536232 108.348167,10.4565217 109.591167,10.4565217 C111.4745,10.4565217 113,11.8884058 113,14.9217391 C113,18.2942029 111.116667,19.8014493 109.045,19.8014493 Z M108.9885,12.4536232 C108.178667,12.4536232 107.538333,12.9623188 106.9545,13.7347826 L106.9545,17.615942 C107.500667,17.8985507 108.0845,18.0304348 108.687167,18.0115942 C109.854833,18.0115942 110.721167,17.0507246 110.721167,15.0724638 C110.74,13.3202899 110.0055,12.4536232 108.9885,12.4536232 Z" id="Shape"></path>
                    <path d="M15.4998333,0 C7.15666667,0 0.6215,10.626087 0,19.5942029 C2.61783333,24.1347826 8.94583333,25.8492754 15.4998333,25.8492754 C22.0538333,25.8492754 28.4006667,24.1536232 30.9996667,19.5942029 C30.397,10.626087 23.8618333,0 15.4998333,0 Z M15.7446667,23.757971 C3.40883333,23.757971 2.22233333,18.5202899 2.22233333,18.5202899 C2.22233333,18.5202899 5.085,9.96666667 8.00416667,9.96666667 C10.1323333,9.94782609 11.0363333,13 12.769,13 C14.5016667,13 18.2871667,6.29275362 19.6431667,6.29275362 C20.9991667,6.29275362 23.3345,8.79855072 25.1613333,11.1536232 C27.798,14.5449275 29.0598333,18.6144928 29.0598333,18.6144928 C29.0598333,18.6144928 28.0993333,23.757971 15.7446667,23.757971 Z M8.88933333,16.9565217 C8.88933333,16.0898551 9.58616667,15.3927536 10.4525,15.3927536 C11.3188333,15.3927536 12.0156667,16.0898551 12.0156667,16.9565217 C12.0156667,17.8231884 11.3188333,18.5202899 10.4525,18.5202899 C9.58616667,18.5202899 8.88933333,17.8231884 8.88933333,16.9565217 Z M19.0028333,16.9565217 C19.0028333,17.8231884 19.6996667,18.5202899 20.566,18.5202899 C21.4323333,18.5202899 22.1291667,17.8231884 22.1291667,16.9565217 C22.1291667,16.0898551 21.4323333,15.3927536 20.566,15.3927536 C19.6996667,15.3927536 19.0028333,16.0898551 19.0028333,16.9565217 Z M18.7203333,20.0652174 C18.8521667,19.8202899 18.758,19.5376812 18.5131667,19.4057971 C18.2683333,19.273913 17.9858333,19.3681159 17.854,19.6130435 C17.8351667,19.6695652 17.1948333,20.7811594 15.5375,20.7811594 C14.577,20.8 13.673,20.3478261 13.1268333,19.5753623 C12.995,19.3492754 12.6936667,19.273913 12.4676667,19.4246377 C12.2416667,19.5753623 12.1663333,19.857971 12.317,20.084058 C13.0515,21.1391304 14.2568333,21.7797101 15.5375,21.742029 C17.8163333,21.7608696 18.6826667,20.1405797 18.7203333,20.0652174 Z" id="Shape"></path>
                </g>
                <g id="wordpress" transform="translate(826.000000, 0.000000)" fill="#868F98">
                    <path d="M12.9411111,0 C5.80555556,0 0,5.81300813 0,12.9577236 C0,20.0813008 5.80555556,25.8943089 12.9411111,25.8943089 C20.0555556,25.8943089 25.8611111,20.0813008 25.8611111,12.9577236 C25.8611111,5.81300813 20.0555556,0 12.9411111,0 Z M12.9411111,25.302439 C6.12222222,25.302439 0.591111111,19.7642276 0.591111111,12.9577236 C0.591111111,6.1300813 6.12222222,0.591869919 12.9411111,0.591869919 C19.7388889,0.591869919 25.27,6.1300813 25.27,12.9577236 C25.27,19.7642276 19.7388889,25.302439 12.9411111,25.302439 Z M22.6733333,7.6097561 C22.7155556,7.96910569 22.7366667,8.3495935 22.7366667,8.75121951 C22.7366667,9.87154472 22.5255556,11.1398374 21.8922222,12.7252033 L18.5144444,22.5333333 C21.8077778,20.6097561 24.0244444,17.0373984 24.0244444,12.9365854 C24.0244444,11.0130081 23.5388889,9.19512195 22.6733333,7.6097561 Z M13.1311111,13.9300813 L9.79555556,23.6113821 C10.7877778,23.9073171 11.8433333,24.0552846 12.92,24.0552846 C14.2077778,24.0552846 15.4533333,23.8439024 16.5933333,23.4211382 C16.5722222,23.3788618 16.53,23.3365854 16.5088889,23.2731707 L13.1311111,13.9300813 Z M20.4144444,12.3869919 C20.4144444,11.0130081 19.9288889,10.0617886 19.5066667,9.32195122 C18.9366667,8.41300813 18.4088889,7.63089431 18.4088889,6.72195122 C18.4088889,5.70731707 19.19,4.75609756 20.2877778,4.75609756 L20.4355556,4.75609756 C18.4511111,2.93821138 15.8122222,1.83902439 12.9411111,1.83902439 C9.05666667,1.83902439 5.65777778,3.82601626 3.67333333,6.84878049 C3.92666667,6.84878049 4.18,6.8699187 4.39111111,6.8699187 C5.55222222,6.8699187 7.34666667,6.72195122 7.34666667,6.72195122 C7.93777778,6.6796748 8.02222222,7.56747967 7.41,7.63089431 C7.41,7.63089431 6.81888889,7.69430894 6.14333333,7.73658537 L10.1755556,19.7430894 L12.6033333,12.4715447 L10.8722222,7.73658537 C10.2811111,7.69430894 9.71111111,7.63089431 9.71111111,7.63089431 C9.12,7.58861789 9.18333333,6.6796748 9.77444444,6.72195122 C9.77444444,6.72195122 11.6111111,6.8699187 12.6877778,6.8699187 C13.8488889,6.8699187 15.6433333,6.72195122 15.6433333,6.72195122 C16.2344444,6.6796748 16.3188889,7.56747967 15.7066667,7.63089431 C15.7066667,7.63089431 15.1155556,7.69430894 14.44,7.73658537 L18.4511111,19.6796748 L19.5488889,15.9804878 C20.0555556,14.4373984 20.4144444,13.3382114 20.4144444,12.3869919 Z M1.83666667,12.9577236 C1.83666667,17.3544715 4.39111111,21.1382114 8.08555556,22.9560976 L2.80777778,8.43414634 C2.17444444,9.8504065 1.83666667,11.3934959 1.83666667,12.9577236 Z M110.938889,18.8764228 C109.946667,18.8764228 109.06,18.3479675 108.68,18.0308943 C108.553333,18.1577236 108.342222,18.5382114 108.278889,18.8764228 L107.814444,18.8764228 L107.814444,15.4097561 L108.3,15.4097561 C108.511111,17.0796748 109.672222,18.0520325 111.15,18.0520325 C111.952222,18.0520325 112.606667,17.6081301 112.606667,16.8471545 C112.606667,16.1918699 112.015556,15.6845528 111.002222,15.2195122 L109.566667,14.5430894 C108.553333,14.0569106 107.814444,13.2325203 107.814444,12.1333333 C107.814444,10.9284553 108.933333,9.89268293 110.495556,9.89268293 C111.318889,9.89268293 112.015556,10.1886179 112.437778,10.5479675 C112.564444,10.4422764 112.691111,10.1674797 112.775556,9.87154472 L113.24,9.87154472 L113.24,12.8308943 L112.712222,12.8308943 C112.543333,11.6471545 111.888889,10.6747967 110.558889,10.6747967 C109.862222,10.6747967 109.207778,11.0764228 109.207778,11.7105691 C109.207778,12.3658537 109.735556,12.7252033 110.938889,13.2747967 L112.311111,13.9512195 C113.514444,14.5219512 114,15.4520325 114,16.2130081 C114,17.7772358 112.627778,18.8764228 110.938889,18.8764228 Z M103.212222,18.8764228 C102.22,18.8764228 101.333333,18.3479675 100.974444,18.0308943 C100.847778,18.1577236 100.615556,18.5382114 100.573333,18.8764228 L100.087778,18.8764228 L100.087778,15.4097561 L100.594444,15.4097561 C100.784444,17.0796748 101.945556,18.0520325 103.423333,18.0520325 C104.225556,18.0520325 104.88,17.6081301 104.88,16.8471545 C104.88,16.1918699 104.288889,15.6845528 103.275556,15.2195122 L101.84,14.5430894 C100.847778,14.0569106 100.087778,13.2325203 100.087778,12.1333333 C100.087778,10.9284553 101.206667,9.89268293 102.768889,9.89268293 C103.592222,9.89268293 104.288889,10.1886179 104.732222,10.5479675 C104.858889,10.4422764 104.985556,10.1674797 105.048889,9.87154472 L105.534444,9.87154472 L105.534444,12.8308943 L105.006667,12.8308943 C104.816667,11.6471545 104.183333,10.6747967 102.853333,10.6747967 C102.135556,10.6747967 101.481111,11.0764228 101.481111,11.7105691 C101.481111,12.3658537 102.008889,12.7252033 103.212222,13.2747967 L104.605556,13.9512195 C105.808889,14.5219512 106.273333,15.4520325 106.273333,16.2130081 C106.273333,17.7772358 104.901111,18.8764228 103.212222,18.8764228 Z M98.1244444,16.1918699 L97.9977778,16.6357724 C97.7866667,17.4813008 97.5122222,17.7772358 95.7177778,17.7772358 L95.38,17.7772358 C94.0711111,17.7772358 93.8388889,17.4813008 93.8388889,15.6845528 L93.8388889,14.5219512 C95.8022222,14.5219512 95.95,14.6910569 95.95,16.001626 L96.4355556,16.001626 L96.4355556,12.2813008 L95.95,12.2813008 C95.95,13.5918699 95.8022222,13.7609756 93.8388889,13.7609756 L93.8388889,10.9495935 L95.2322222,10.9495935 C97.0055556,10.9495935 97.28,11.2455285 97.5122222,12.0699187 L97.6388889,12.5560976 L98.04,12.5560976 L97.85,10.1886179 L90.4822222,10.1886179 L90.4822222,10.6536585 C91.8966667,10.6536585 92.1077778,10.9495935 92.1077778,12.7463415 L92.1077778,15.9593496 C92.1077778,17.6081301 91.9177778,18.0097561 90.82,18.0731707 C89.7644444,17.904065 89.0466667,17.3333333 88.0544444,16.2341463 L86.8933333,14.9869919 C88.4555556,14.7121951 89.2788889,13.7398374 89.2788889,12.6195122 C89.2788889,11.2455285 88.0966667,10.1886179 85.9011111,10.1886179 L81.4888889,10.1886179 L81.4888889,10.6536585 C82.8822222,10.6536585 83.1144444,10.9495935 83.1144444,12.7463415 L83.1144444,15.9593496 C83.1144444,17.7560976 82.8822222,18.0731707 81.4888889,18.0731707 L81.4888889,18.5593496 L86.4711111,18.5593496 L86.4711111,18.0731707 C85.0777778,18.0731707 84.8455556,17.7560976 84.8455556,15.9593496 L84.8455556,15.0504065 L85.2677778,15.0504065 L88.0544444,18.5382114 L98.3566667,18.5382114 L98.5044444,16.1707317 L98.1244444,16.1918699 Z M84.8455556,14.2894309 L84.8455556,10.9495935 L85.88,10.9495935 C86.9988889,10.9495935 87.5055556,11.7317073 87.5055556,12.6406504 C87.5055556,13.5284553 86.9988889,14.2894309 85.88,14.2894309 L84.8455556,14.2894309 Z M77.4566667,18.0520325 L77.4566667,18.5593496 L71.7144444,18.5593496 L71.7144444,18.0520325 C73.3822222,18.0520325 73.6988889,17.6292683 73.6988889,15.1138211 L73.6988889,11.097561 C73.6988889,8.58211382 73.3822222,8.1804878 71.7144444,8.1804878 L71.7144444,7.67317073 L76.9077778,7.67317073 C79.4833333,7.67317073 80.9188889,9.00487805 80.9188889,10.7804878 C80.9188889,12.5138211 79.4833333,13.8666667 76.9077778,13.8666667 L75.4722222,13.8666667 L75.4722222,15.0926829 C75.4722222,17.6292683 75.7677778,18.0520325 77.4566667,18.0520325 Z M76.9077778,8.58211382 L75.4722222,8.58211382 L75.4722222,12.9577236 L76.9077778,12.9577236 C78.3011111,12.9577236 78.9555556,11.9853659 78.9555556,10.801626 C78.9555556,9.59674797 78.3011111,8.58211382 76.9077778,8.58211382 Z M46.8244444,18.8764228 C44.0588889,18.8764228 41.8,16.8471545 41.8,14.3528455 C41.8,11.900813 44.0588889,9.8504065 46.8244444,9.8504065 C49.5688889,9.8504065 51.8277778,11.8796748 51.8277778,14.3528455 C51.8277778,16.8471545 49.5688889,18.8764228 46.8244444,18.8764228 Z M46.8244444,10.6536585 C44.5022222,10.6536585 43.7,12.7252033 43.7,14.3739837 C43.7,16.0227642 44.5022222,18.0943089 46.8244444,18.0943089 C49.1466667,18.0943089 49.9488889,16.0439024 49.9488889,14.3739837 C49.9488889,12.7252033 49.1466667,10.6536585 46.8244444,10.6536585 Z M38.2955556,15.2195122 L40.0266667,10.104065 C40.5122222,8.62439024 40.3011111,8.20162602 38.6966667,8.20162602 L38.6966667,7.69430894 L43.4044444,7.69430894 L43.4044444,8.20162602 C41.8211111,8.20162602 41.4411111,8.58211382 40.8288889,10.4211382 L37.9577778,19.003252 L37.6411111,19.003252 L35.0866667,11.1398374 L32.4688889,19.003252 L32.1522222,19.003252 L29.3655556,10.4211382 C28.7744444,8.58211382 28.3733333,8.20162602 26.9166667,8.20162602 L26.9166667,7.69430894 L32.4688889,7.69430894 L32.4688889,8.20162602 C30.9911111,8.20162602 30.59,8.56097561 31.1177778,10.104065 L32.8066667,15.2195122 L35.34,7.69430894 L35.8044444,7.69430894 L38.2955556,15.2195122 Z M66.12,10.1886179 L61.6233333,10.1886179 L61.6233333,10.6536585 C63.0377778,10.6536585 63.27,10.9495935 63.27,12.7463415 L63.27,15.9593496 C63.27,17.7560976 63.0377778,18.0731707 61.6233333,18.0731707 C60.5466667,17.9252033 59.8288889,17.3544715 58.8155556,16.2341463 L57.6755556,14.9869919 C59.2166667,14.7121951 60.0611111,13.7398374 60.0611111,12.6195122 C60.0611111,11.2455285 58.8788889,10.1886179 56.6622222,10.1886179 L52.25,10.1886179 L52.25,10.6536585 C53.6644444,10.6536585 53.8755556,10.9495935 53.8755556,12.7463415 L53.8755556,15.9593496 C53.8755556,17.7560976 53.6644444,18.0731707 52.25,18.0731707 L52.25,18.5593496 L57.2533333,18.5593496 L57.2533333,18.0731707 C55.8388889,18.0731707 55.6066667,17.7560976 55.6066667,15.9593496 L55.6066667,15.0504065 L56.05,15.0504065 L58.8155556,18.5382114 L66.12,18.5382114 C69.7088889,18.5382114 71.25,16.6357724 71.25,14.3317073 C71.25,12.0699187 69.7088889,10.1886179 66.12,10.1886179 Z M55.6066667,14.2894309 L55.6066667,10.9495935 L56.6411111,10.9495935 C57.76,10.9495935 58.2666667,11.7317073 58.2666667,12.6406504 C58.2666667,13.5284553 57.76,14.2894309 56.6411111,14.2894309 L55.6066667,14.2894309 Z M66.1833333,17.7772358 L66.0144444,17.7772358 C65.1066667,17.7772358 64.98,17.5447154 64.98,16.403252 L64.98,10.9495935 L66.1833333,10.9495935 C68.8011111,10.9495935 69.2866667,12.8520325 69.2866667,14.3317073 C69.2866667,15.8747967 68.8011111,17.7772358 66.1833333,17.7772358 Z" id="Shape"></path>
                </g>
            </g>
            <path d="M0,8 L382.001979,8" id="Line" stroke="#979797" stroke-linecap="round" stroke-linejoin="round" stroke-dasharray="1,3"></path>
            <path d="M558,8 L940.001979,8" id="Line-Copy" stroke="#979797" stroke-linecap="round" stroke-linejoin="round" stroke-dasharray="1,3"></path>
            <path d="M401.144531,7.47265625 C401.144531,9.76367188 399.773438,11.140625 397.458984,11.140625 C394.992188,11.140625 393.457031,9.46484375 393.457031,6.74023438 C393.457031,4.05664062 394.986328,2.40429688 397.429688,2.40429688 C399.351562,2.40429688 400.804688,3.54101562 401.080078,5.234375 L399.544922,5.234375 C399.257812,4.26171875 398.472656,3.6875 397.435547,3.6875 C395.912109,3.6875 395.003906,4.81835938 395.003906,6.72265625 C395.003906,8.66796875 395.953125,9.85742188 397.476562,9.85742188 C398.753906,9.85742188 399.638672,9.04882812 399.662109,7.86523438 L399.667969,7.72460938 L397.628906,7.72460938 L397.628906,6.5703125 L401.144531,6.5703125 L401.144531,7.47265625 Z M409.624609,9.72265625 L409.624609,11 L404.275,11 L404.275,2.54492188 L405.786719,2.54492188 L405.786719,9.72265625 L409.624609,9.72265625 Z M415.210156,11 L413.704297,11 L413.704297,7.66601562 L410.739453,2.54492188 L412.397656,2.54492188 L414.448437,6.22460938 L414.483594,6.22460938 L416.528516,2.54492188 L418.175,2.54492188 L415.210156,7.66601562 L415.210156,11 Z M420.977344,2.54492188 L424.264453,2.54492188 C425.946094,2.54492188 427.112109,3.6875 427.112109,5.375 C427.112109,7.0625 425.910937,8.20507812 424.2,8.20507812 L422.489062,8.20507812 L422.489062,11 L420.977344,11 L420.977344,2.54492188 Z M422.489062,3.78125 L422.489062,6.98632812 L423.860156,6.98632812 C424.944141,6.98632812 425.576953,6.40039062 425.576953,5.375 C425.576953,4.36132812 424.95,3.78125 423.866016,3.78125 L422.489062,3.78125 Z M437.244531,11 L435.738672,11 L435.738672,7.33203125 L431.625391,7.33203125 L431.625391,11 L430.113672,11 L430.113672,2.54492188 L431.625391,2.54492188 L431.625391,6.06054688 L435.738672,6.06054688 L435.738672,2.54492188 L437.244531,2.54492188 L437.244531,11 Z M442.144531,11 L440.632812,11 L440.632812,2.54492188 L442.144531,2.54492188 L442.144531,11 Z M445.187109,8.62109375 L446.651953,8.62109375 C446.745703,9.40039062 447.525,9.91015625 448.55625,9.91015625 C449.575781,9.91015625 450.284765,9.40625 450.284765,8.703125 C450.284765,8.09375 449.851172,7.7421875 448.784765,7.49023438 L447.689062,7.23242188 C446.130469,6.875 445.392187,6.125 445.392187,4.91796875 C445.392187,3.41796875 446.698828,2.40429688 448.538672,2.40429688 C450.401953,2.40429688 451.632422,3.41210938 451.667578,4.90039062 L450.226172,4.90039062 C450.155859,4.109375 449.49375,3.63476562 448.526953,3.63476562 C447.571875,3.63476562 446.927344,4.10351562 446.927344,4.80664062 C446.927344,5.36914062 447.355078,5.69726562 448.392187,5.94335938 L449.364844,6.16601562 C451.08164,6.55859375 451.808203,7.26757812 451.808203,8.52734375 C451.808203,10.1328125 450.51914,11.140625 448.474219,11.140625 C446.528906,11.140625 445.251562,10.1796875 445.187109,8.62109375 Z M461.975781,11 L460.469922,11 L460.469922,7.33203125 L456.35664,7.33203125 L456.35664,11 L454.844922,11 L454.844922,2.54492188 L456.35664,2.54492188 L456.35664,6.06054688 L460.469922,6.06054688 L460.469922,2.54492188 L461.975781,2.54492188 L461.975781,11 Z M471.178125,11 L469.666406,11 L469.666406,2.54492188 L471.178125,2.54492188 L471.178125,11 Z M474.220703,8.62109375 L475.685547,8.62109375 C475.779297,9.40039062 476.558594,9.91015625 477.589844,9.91015625 C478.609375,9.91015625 479.318359,9.40625 479.318359,8.703125 C479.318359,8.09375 478.884765,7.7421875 477.818359,7.49023438 L476.722656,7.23242188 C475.164062,6.875 474.425781,6.125 474.425781,4.91796875 C474.425781,3.41796875 475.732422,2.40429688 477.572265,2.40429688 C479.435547,2.40429688 480.666015,3.41210938 480.701172,4.90039062 L479.259765,4.90039062 C479.189453,4.109375 478.527344,3.63476562 477.560547,3.63476562 C476.605469,3.63476562 475.960937,4.10351562 475.960937,4.80664062 C475.960937,5.36914062 476.388672,5.69726562 477.425781,5.94335938 L478.398437,6.16601562 C480.115234,6.55859375 480.841797,7.26757812 480.841797,8.52734375 C480.841797,10.1328125 479.552734,11.140625 477.507812,11.140625 C475.5625,11.140625 474.285156,10.1796875 474.220703,8.62109375 Z M489.692578,2.54492188 L489.692578,7.8828125 C489.692578,9.03710938 490.401562,9.82226562 491.655468,9.82226562 C492.909375,9.82226562 493.624218,9.03710938 493.624218,7.8828125 L493.624218,2.54492188 L495.130078,2.54492188 L495.130078,8.01757812 C495.130078,9.86328125 493.8,11.140625 491.655468,11.140625 C489.516797,11.140625 488.180859,9.86328125 488.180859,8.01757812 L488.180859,2.54492188 L489.692578,2.54492188 Z M498.178515,8.62109375 L499.643359,8.62109375 C499.737109,9.40039062 500.516406,9.91015625 501.547656,9.91015625 C502.567187,9.91015625 503.276172,9.40625 503.276172,8.703125 C503.276172,8.09375 502.842578,7.7421875 501.776172,7.49023438 L500.680468,7.23242188 C499.121875,6.875 498.383593,6.125 498.383593,4.91796875 C498.383593,3.41796875 499.690234,2.40429688 501.530078,2.40429688 C503.393359,2.40429688 504.623828,3.41210938 504.658984,4.90039062 L503.217578,4.90039062 C503.147265,4.109375 502.485156,3.63476562 501.518359,3.63476562 C500.563281,3.63476562 499.91875,4.10351562 499.91875,4.80664062 C499.91875,5.36914062 500.346484,5.69726562 501.383593,5.94335938 L502.35625,6.16601562 C504.073047,6.55859375 504.799609,7.26757812 504.799609,8.52734375 C504.799609,10.1328125 503.510547,11.140625 501.465625,11.140625 C499.520312,11.140625 498.242968,10.1796875 498.178515,8.62109375 Z M513.308984,9.72265625 L513.308984,11 L507.836328,11 L507.836328,2.54492188 L513.308984,2.54492188 L513.308984,3.82226562 L509.348047,3.82226562 L509.348047,6.10742188 L513.092187,6.10742188 L513.092187,7.30859375 L509.348047,7.30859375 L509.348047,9.72265625 L513.308984,9.72265625 Z M516.521484,2.54492188 L519.609375,2.54492188 C522.134765,2.54492188 523.628906,4.07421875 523.628906,6.75195312 C523.628906,9.4296875 522.140625,11 519.609375,11 L516.521484,11 L516.521484,2.54492188 Z M518.033203,3.82226562 L518.033203,9.72265625 L519.451172,9.72265625 C521.15039,9.72265625 522.08789,8.68554688 522.08789,6.7578125 C522.08789,4.86523438 521.138672,3.82226562 519.451172,3.82226562 L518.033203,3.82226562 Z M534.571484,11 L531.026562,11 L531.026562,2.54492188 L534.536328,2.54492188 C536.071484,2.54492188 537.061718,3.37109375 537.061718,4.65429688 C537.061718,5.5625 536.38789,6.35351562 535.520703,6.49414062 L535.520703,6.54101562 C536.66914,6.65234375 537.471875,7.47851562 537.471875,8.59765625 C537.471875,10.0859375 536.376171,11 534.571484,11 Z M532.538281,3.72265625 L532.538281,6.10742188 L533.921093,6.10742188 C534.975781,6.10742188 535.567578,5.66210938 535.567578,4.87695312 C535.567578,4.13867188 535.057812,3.72265625 534.155468,3.72265625 L532.538281,3.72265625 Z M532.538281,9.82226562 L534.225781,9.82226562 C535.339062,9.82226562 535.930859,9.359375 535.930859,8.4921875 C535.930859,7.63085938 535.321484,7.1796875 534.161328,7.1796875 L532.538281,7.1796875 L532.538281,9.82226562 Z M544.334765,11 L542.828906,11 L542.828906,7.66601562 L539.864062,2.54492188 L541.522265,2.54492188 L543.573046,6.22460938 L543.608203,6.22460938 L545.653125,2.54492188 L547.299609,2.54492188 L544.334765,7.66601562 L544.334765,11 Z" id="GLYPHISH-IS-USED-BY" fill="#868F98"></path>
        </g>
    </g>
</svg>