<?xml version="1.0" encoding="UTF-8"?>
<svg width="128px" height="64px" viewBox="0 0 128 64" version="1.1" xmlns="http://www.w3.org/2000/svg" xmlns:xlink="http://www.w3.org/1999/xlink">
    <!-- Generator: Sketch 49 (51002) - http://www.bohemiancoding.com/sketch -->
    <title>Group</title>
    <desc>Created with Sketch.</desc>
    <defs></defs>
    <g id="Page-1" stroke="none" stroke-width="1" fill="none" fill-rule="evenodd">
        <g id="v1-big" transform="translate(-127.000000, -64.000000)" fill="#222222">
            <g id="header" transform="translate(127.000000, 64.000000)">
                <g id="logo">
                    <g id="Group">
                        <path d="M14.3950403,40.8668467 C13.4931195,40.1986706 10.770661,39.0129169 7.68088921,39.0129169 C3.03771662,39.0129169 0.448826499,41.7019833 0.0815133132,45.8439404 C-0.0186630103,46.9462138 -0.0353590642,48.90032 0.0815133132,50.1197998 C0.465522553,54.2450608 2.90414819,56.7504706 7.16331154,56.7504706 C9.11741769,56.7504706 10.5372501,56.215863 11.7230039,55.6478632 L11.7230039,56.1657748 C11.7230039,59.07189 9.95255431,60.5084184 7.53062473,60.5084184 C6.06070414,60.5084184 5.04191093,60.2242516 3.82276507,59.6064976 C3.03771662,59.2057923 2.57022711,58.8715373 2.26936422,58.8715373 C1.90205103,58.8715373 1.7684826,59.0218018 1.20048285,59.9574487 C0.783081499,60.6590168 0.6658752,60.8927616 0.6658752,61.1265063 C0.6658752,61.5272116 0.950042038,61.7278982 1.90205103,62.2287798 C3.3051874,62.9971322 5.14208726,63.6486123 7.53062473,63.6486123 C11.6725818,63.6486123 15.0465204,61.0597221 15.0465204,55.9487261 L15.0465204,42.2198949 C15.0461864,41.5179928 14.8625298,41.2007678 14.3950403,40.8668467 Z M11.70564,52.4916412 C11.104582,52.9427686 9.63466144,53.7274831 7.63046713,53.7274831 C4.85792042,53.7274831 3.60504853,52.2578964 3.42172586,49.7020645 C3.3716377,48.9006539 3.35494164,47.1302044 3.42172586,46.2282835 C3.60538245,43.8898342 4.80783226,42.2365909 7.68055529,42.2365909 C9.83501409,42.2365909 11.5386794,43.1552078 11.70564,43.2884423 L11.70564,52.4916412 Z M22.2909382,33.1339024 C20.6209988,33.1339024 20.6209988,33.1339024 20.6209988,34.8876559 L20.6209988,55.3810603 C20.6209988,56.9508233 20.6209988,56.9508233 22.2909382,56.9508233 C23.9612114,56.9508233 23.9612114,56.9508233 23.9612114,55.3810603 L23.9612114,34.8876559 C23.9612114,33.1339024 23.9612114,33.1339024 22.2909382,33.1339024 Z M42.8541321,39.6643969 C41.9021231,39.3304758 41.551506,39.2469955 41.3511533,39.2469955 C40.9671441,39.2469955 40.8669677,39.5642206 40.5998309,40.3158769 C38.1278131,46.7294991 37.1925002,49.2011829 36.173707,51.9403375 C36.1403149,52.0238178 36.1069228,52.107298 36.0067464,52.107298 C35.9065701,52.107298 35.873178,52.0238178 35.8397859,51.9403375 C34.5201298,48.7500555 33.8355916,47.0129981 31.096437,40.332239 C30.8122702,39.5638866 30.7124277,39.2296316 30.2946925,39.2296316 C30.1110359,39.2296316 29.5931243,39.3798961 28.8247719,39.664063 C28.0063313,39.981288 27.605626,40.1482485 27.605626,40.5325917 C27.605626,40.7496404 27.7224984,41.0671993 28.0230274,41.8021596 L34.1194245,55.7650695 C33.1173274,58.1866652 31.9315736,59.5731055 30.5785254,60.4249382 C30.0439178,60.8089474 29.8769572,60.992604 29.8769572,61.2430448 C29.8769572,61.5272116 29.9771335,61.6607801 30.6620057,62.5627009 C31.2296715,63.3310533 31.4303581,63.5147099 31.7642791,63.5147099 C32.0648081,63.5147099 32.4324552,63.2809651 32.8498566,62.9801023 C34.5197959,61.8110446 36.2404912,59.5063213 37.426245,56.6669903 L43.6228184,41.7350415 C43.8565632,41.1506796 43.9901316,40.7830325 43.9901316,40.5492877 C43.9897977,40.1819746 43.772749,39.9816219 42.8541321,39.6643969 Z M54.9293861,39.0129169 C51.8229183,39.0129169 49.2507243,40.2821509 48.1317547,41.0668654 C47.6976573,41.3673944 47.5971471,41.6682573 47.5971471,42.1190507 L47.5971471,61.610358 C47.5971471,63.3474154 47.5971471,63.3474154 49.2841164,63.3474154 C50.9540557,63.3474154 50.9540557,63.3474154 50.9540557,61.610358 L50.9540557,56.2996772 C52.022937,56.7671667 53.6431221,57.2680483 55.2466111,57.2680483 C59.4553524,57.2680483 62.2112031,54.4287174 62.5454581,50.487113 C62.6790265,49.1010066 62.6790265,47.0964783 62.5454581,45.710038 C62.1781449,41.7353754 59.2386376,39.0129169 54.9293861,39.0129169 Z M59.2052455,50.1364958 C59.0048929,52.5246994 57.4681881,54.0280121 54.9798082,54.0280121 C53.2761429,54.0280121 51.6225657,53.393562 50.9543896,52.9424346 L50.9543896,43.4557368 C51.7728302,42.8209528 53.5599758,42.2365909 54.895994,42.2365909 C57.434796,42.2365909 59.0048929,43.82305 59.2219416,46.1781954 C59.338814,47.3806452 59.3221179,48.7500555 59.2052455,50.1364958 Z M75.7794182,39.0129169 C73.79192,39.0129169 71.9045981,39.8978077 70.918863,40.8668467 L70.918863,34.9711361 C70.918863,33.2340787 70.918863,33.2340787 69.2485898,33.2340787 C67.5783166,33.2340787 67.5783166,33.2340787 67.5783166,34.9711361 L67.5783166,55.3810603 C67.5783166,56.9508233 67.5783166,56.9508233 69.2656198,56.9508233 C70.918863,56.9508233 70.918863,56.9508233 70.918863,55.3810603 L70.918863,44.47453 C71.854176,43.3388644 73.5244492,42.3033752 75.3282909,42.3033752 C77.7001323,42.3033752 79.0361505,43.7228737 79.0361505,46.2115875 L79.0361505,55.3473342 C79.0361505,56.9508233 79.0361505,56.9508233 80.6897277,56.9508233 C82.376697,56.9508233 82.376697,56.9508233 82.376697,55.3473342 L82.376697,45.9942048 C82.376697,41.4014543 79.8045029,39.0129169 75.7794182,39.0129169 Z M89.4174229,33 C87.5634931,33 87.5634931,33 87.5634931,34.8706259 C87.5634931,36.7916738 87.5634931,36.7916738 89.4174229,36.7916738 C91.3047449,36.7916738 91.3047449,36.7916738 91.3047449,34.8706259 C91.3047449,33 91.3047449,33 89.4174229,33 Z M89.4174229,39.3134458 C87.7638457,39.3134458 87.7638457,39.3134458 87.7638457,41.0174451 L87.7638457,55.3813942 C87.7638457,56.9511572 87.7638457,56.9511572 89.4174229,56.9511572 C91.1043922,56.9511572 91.1043922,56.9511572 91.1043922,55.3813942 L91.1043922,41.0174451 C91.1043922,39.3134458 91.1043922,39.3134458 89.4174229,39.3134458 Z M104.015117,46.8129793 C103.631108,46.7294991 102.578922,46.5124504 101.610217,46.2783717 C99.7896795,45.8272443 99.2053176,45.1924603 99.2053176,44.2571474 C99.2053176,42.8543449 100.340649,42.0859925 102.344844,42.0859925 C103.380667,42.0859925 104.416156,42.3364334 105.267989,42.8206189 C105.818958,43.1211479 106.053037,43.3051384 106.33687,43.3051384 C106.654095,43.3051384 106.837752,43.1044518 107.355663,42.4533057 C107.890271,41.7851296 108.007143,41.6011391 108.007143,41.3176401 C108.007143,41.0501694 107.856545,40.8164246 107.422447,40.4658075 C106.353566,39.6306709 104.432852,39.0125829 102.478412,39.0125829 C98.7374941,39.0125829 95.9813096,41.0000812 95.9813096,44.3235977 C95.9813096,46.979272 97.8355733,48.5159768 100.59109,49.200515 L103.180314,49.8019069 C104.900342,50.2360043 105.568518,50.8874843 105.568518,51.8895815 C105.568518,53.2426297 104.482606,54.2280308 102.378236,54.2280308 C100.440826,54.2280308 99.1378655,53.6767271 98.018896,52.8916786 C97.6682788,52.691326 97.4008081,52.4742773 97.1169751,52.4742773 C96.766358,52.4742773 96.5993975,52.691326 96.0480938,53.3758642 C95.497124,54.0777663 95.4300059,54.2110008 95.4300059,54.4447456 C95.4300059,54.7956966 95.6974766,55.0127453 96.0814859,55.3136082 C97.6682788,56.5163919 99.622385,57.2677144 102.34451,57.2677144 C106.069065,57.2677144 108.841612,55.1800398 108.841612,51.8064351 C108.841946,49.2178789 107.288879,47.647782 104.015117,46.8129793 Z M121.402721,39.0129169 C119.415223,39.0129169 117.527901,39.8978077 116.542166,40.8668467 L116.542166,34.9711361 C116.542166,33.2340787 116.542166,33.2340787 114.871893,33.2340787 C113.20162,33.2340787 113.20162,33.2340787 113.20162,34.9711361 L113.20162,55.3810603 C113.20162,56.9508233 113.20162,56.9508233 114.888923,56.9508233 C116.542166,56.9508233 116.542166,56.9508233 116.542166,55.3810603 L116.542166,44.47453 C117.477479,43.3388644 119.147752,42.3033752 120.951594,42.3033752 C123.323435,42.3033752 124.659454,43.7228737 124.659454,46.2115875 L124.659454,55.3473342 C124.659454,56.9508233 124.659454,56.9508233 126.313031,56.9508233 C128,56.9508233 128,56.9508233 128,55.3473342 L128,45.9942048 C128,41.4014543 125.427806,39.0129169 121.402721,39.0129169 Z" id="logotext" fill-rule="nonzero"></path>
                        <path d="M40,26 L40,14 L34,14 L34,20.17425 C35.16425,20.58625 36,21.694 36,22.99975 C36,24.657 34.657,26 33,26 C31.343,26 30,24.657 30,22.99975 C30,21.694 30.83575,20.5865 32,20.17425 L32,14 L26,14 L26,20.17425 C27.1645,20.58625 28,21.69425 28,22.99975 C28,24.65675 26.65675,26 25,26 C23.34325,26 22,24.65675 22,22.99975 C22,21.69425 22.83575,20.58675 24.00025,20.17425 L24.00025,14 L18.00025,14 L18.00025,20.17425 C19.1645,20.58675 20.00025,21.69425 20.00025,22.99975 C20.00025,24.657 18.65675,26 17.00025,26 C15.3435,26 14.00025,24.65675 14.00025,22.99975 C14.00025,21.69425 14.83575,20.587 16.00025,20.17425 L16.00025,14 L13.00025,14 L5.5595,21.44075 C5.837,21.89525 6,22.428 6,22.99975 C6,24.65675 4.657,26 3,26 C1.343,26 0,24.65675 0,22.99975 C0,21.343 1.343,20 3,20 C3.303,20 3.595,20.046 3.8705,20.1295 L11,13 L3.8705,5.8705 C3.59475,5.954 3.30275,5.99975 3,5.99975 C1.34325,5.99975 0,4.657 0,2.99975 C0,1.34325 1.34325,7.10542736e-15 3,7.10542736e-15 C4.65675,7.10542736e-15 6,1.3435 6,3 C6,3.57225 5.837,4.1045 5.55925,4.5595 L13,12.00025 L16,12.00025 L16,5.8255 C14.8355,5.4135 14,4.30575 14,3 C14,1.34325 15.34325,0 17,0 C18.65675,0 20,1.3435 20,3 C20,4.30575 19.16425,5.41325 18,5.8255 L18,12.00025 L24,12.00025 L24,5.8255 C22.8355,5.4135 22,4.30575 22,3 C22,1.3435 23.34325,0 25,0 C26.65675,0 28,1.3435 28,3 C28,4.30575 27.1645,5.4135 26,5.82575 L26,12.00025 L32,12.00025 L32,5.8255 C30.8355,5.4135 30,4.30575 30,3 C30,1.3435 31.34325,0 33,0 C34.657,0 36,1.34325 36,2.99975 C36,4.30575 35.1645,5.41325 34,5.8255 L34,12.00025 L40,12.00025 L40,0.00025 C40,0.00025 64,1.00025 64,13.00025 C64,24.99975 40,26 40,26 Z M55,15.857 C55,15.5415 54.87175,15.2555 54.66425,15.0485 L52.61625,13.00025 L54.66425,10.952 C54.87175,10.745 55,10.45875 55,10.143 C55,9.5125 54.48825,9.0005 53.85725,9.0005 C53.54125,9.0005 53.2555,9.129 53.0485,9.336 L51.00025,11.38425 L48.952,9.336 C48.745,9.129 48.459,9.0005 48.14325,9.0005 C47.51225,9.0005 47.0005,9.5125 47.0005,10.143 C47.0005,10.459 47.129,10.745 47.33625,10.952 L49.38425,13.00025 L47.336,15.0485 C47.129,15.255 47.0005,15.54175 47.0005,15.85725 C47.0005,16.48825 47.51225,16.99975 48.14325,16.99975 C48.45925,17 48.745,16.8715 48.952,16.66475 L51.00025,14.61625 L53.04825,16.6645 C53.2555,16.8715 53.5415,16.99975 53.85725,16.99975 C54.48825,17 55,16.48825 55,15.857 Z" id="logo"></path>
                    </g>
                </g>
            </g>
        </g>
    </g>
</svg>