<?xml version="1.0" encoding="utf-8"?>
<!-- Generator: Adobe Illustrator 22.0.1, SVG Export Plug-In . SVG Version: 6.00 Build 0)  -->
<svg version="1.1" id="Layer_1" xmlns="http://www.w3.org/2000/svg" xmlns:xlink="http://www.w3.org/1999/xlink" x="0px" y="0px"
	 viewBox="0 0 600 137.3" style="enable-background:new 0 0 600 137.3;" xml:space="preserve">
<style type="text/css">
	.st0{fill:#868F98;}
</style>
<title>basecamp-bw-standard</title>
<g id="Layer_2_1_">
	<g id="Layer_1-2">
		<path class="st0" d="M215,104.6h-19.7V36h20c15.4,0,22.8,7,22.8,17.8c0,7.2-4,11.8-9.9,14.3c7.7,2.4,12.7,7.4,12.7,16.5
			C240.9,98.1,231.1,104.6,215,104.6z M214.6,46H208v18.2h6c7.8,0,11.8-3.5,11.8-9.4C225.9,49.4,222.6,46,214.6,46z M214.8,73.5H208
			v21h7c8.4,0,13.2-3.5,13.2-10.3S223.6,73.5,214.8,73.5z M276.5,104.5l-1-6.3c-3.9,4.1-8.9,7.3-16,7.3c-8.2,0-13.6-5-13.6-13.3
			c0-11.6,9.6-16.7,28.9-18.6v-1.4c0-5.2-3-7.2-8.3-7.2c-5.6,0-10.8,1.6-16,3.9l-1.5-9.6c6-2.5,12.5-3.9,19.1-3.9
			c12.4,0,18.6,4.6,18.6,16.1v32.9L276.5,104.5z M274.8,80.5c-13.8,1.8-17.1,5.8-17.1,10.4c0,3.5,2.2,5.6,5.9,5.6
			c4.1,0,8-1.9,11.2-5.2L274.8,80.5z M312.9,105.4c-6.5-0.1-12.9-1.7-18.7-4.7l1.6-9.9c5.2,3.4,11.5,5.7,17.5,5.7c5.2,0,8-1.9,8-5
			c0-3.4-2.1-4.8-9.8-6.7c-11.6-3-16.5-6.4-16.5-15.1c0-8.3,6.6-14.1,17.7-14.1c5.8-0.1,11.5,1.1,16.8,3.4l-1.6,10
			c-4.6-2.7-9.9-4.2-15.2-4.4c-4.5,0-6.7,1.7-6.7,4.4s1.8,4,9,5.9c12.4,3.1,17.2,6.5,17.2,15.6C332.3,99.9,325.5,105.5,312.9,105.4
			L312.9,105.4z M379.8,82.9h-30.8c0.6,9.3,5.6,13.4,12.9,13.4c6.2,0,11.2-2.3,16.5-6l1.4,9.3c-5.6,3.9-12.3,6-19.2,5.9
			c-13.4,0-23.5-7.7-23.5-25c0-15.6,9.4-25.1,21.9-25.1c14.4,0,20.9,10.8,20.9,24.5C379.9,81,379.8,82.2,379.8,82.9z M358.7,63.8
			c-4.8,0-8.7,3.8-9.5,11.6h19.1C367.4,68,364.4,63.8,358.7,63.8L358.7,63.8z M407.5,105.5c-13.3,0-22.8-9-22.8-24.7
			c0-16.7,10.4-25.3,23.2-25.3c5.3-0.1,10.5,1.3,15,4.1l-1.7,10.7c-3.6-2.9-8-4.5-12.6-4.5c-6.9,0-11.8,5.1-11.8,14.6
			c0,9.9,5.4,14.7,12.6,14.7c4.2,0,8-1.1,12.4-4.6l1.6,10.2C418.8,104,413.2,105.7,407.5,105.5L407.5,105.5z M457,104.6l-1-6.3
			c-3.9,4.1-8.9,7.3-16,7.3c-8.2,0-13.6-5-13.6-13.3c0-11.6,9.5-16.7,28.9-18.6v-1.4c0-5.2-3-7.2-8.3-7.2c-5.6,0-10.8,1.6-16,3.9
			l-1.5-9.6c6-2.5,12.5-3.9,19.1-3.9c12.4,0,18.6,4.6,18.6,16.1v32.9L457,104.6z M455.3,80.6c-13.8,1.7-17.1,5.8-17.1,10.3
			c0,3.5,2.2,5.6,5.9,5.6c4.1,0,8-1.9,11.2-5.2L455.3,80.6z M534.2,104.6V73.2c0-4.2-1.5-7.1-5.9-7.1c-3.7,0-7.2,2.4-10.6,6v32.5
			h-11.9V73.2c0-4.2-1.6-7.1-6-7.1c-3.7,0-7.2,2.4-10.6,6v32.5h-11.9v-48h10.1l1.1,6.8c4.5-4.3,9.4-7.8,15.8-7.8
			c6.9,0,10.5,3.1,12.3,7.8c4.3-4.3,9.5-7.8,16-7.8c9,0,13.5,5.5,13.5,14.4v34.6L534.2,104.6z M579,105.1c-3.8,0.1-7.6-0.6-11.1-1.9
			v18.1l-11.9,1.8V56.5h10.1l1.1,6.6c3.4-3.9,8.1-7.6,14.7-7.6c10,0,18.1,7.6,18.1,23.7C600,97.1,590,105.1,579,105.1L579,105.1z
			 M578.7,66.1c-4.3,0-7.7,2.7-10.8,6.8v20.6c2.9,1.5,6,2.2,9.2,2.1c6.2,0,10.8-5.1,10.8-15.6C588,70.7,584.1,66.1,578.7,66.1
			L578.7,66.1z"/>
		<path class="st0" d="M82.3,0C38,0,3.3,56.4,0,104c13.9,24.1,47.5,33.2,82.3,33.2s68.5-9,82.3-33.2C161.4,56.4,126.7,0,82.3,0z
			 M83.6,126.1c-65.5,0-71.8-27.8-71.8-27.8S27,52.9,42.5,52.9C53.8,52.8,58.6,69,67.8,69s29.3-35.6,36.5-35.6s19.6,13.3,29.3,25.8
			c14,18,20.7,39.6,20.7,39.6S149.2,126.1,83.6,126.1L83.6,126.1z M47.2,90c0-4.6,3.7-8.3,8.3-8.3s8.3,3.7,8.3,8.3
			c0,4.6-3.7,8.3-8.3,8.3S47.2,94.6,47.2,90L47.2,90 M100.9,90c0,4.6,3.7,8.3,8.3,8.3s8.3-3.7,8.3-8.3s-3.7-8.3-8.3-8.3
			S100.9,85.4,100.9,90L100.9,90 M99.4,106.5c0.7-1.3,0.2-2.8-1.1-3.5c-1.3-0.7-2.8-0.2-3.5,1.1l0,0c-0.1,0.3-3.5,6.2-12.3,6.2
			c-5.1,0.1-9.9-2.3-12.8-6.4c-0.7-1.2-2.3-1.6-3.5-0.8s-1.6,2.3-0.8,3.5c3.9,5.6,10.3,9,17.1,8.8C94.6,115.5,99.2,106.9,99.4,106.5
			L99.4,106.5z"/>
	</g>
</g>
</svg>
