<?xml version="1.0" encoding="utf-8"?>
<!-- Generator: Adobe Illustrator 22.0.1, SVG Export Plug-In . SVG Version: 6.00 Build 0)  -->
<svg version="1.1" id="Layer_1" xmlns="http://www.w3.org/2000/svg" xmlns:xlink="http://www.w3.org/1999/xlink" x="0px" y="0px"
	 viewBox="0 0 146.6 28.6" style="enable-background:new 0 0 146.6 28.6;" xml:space="preserve">
<style type="text/css">
	.st0{fill:#868F98;}
</style>
<path class="st0" d="M121.2,9.9c-2-0.5-4.1-0.5-6.1,0c-3,0.8-5.1,2.7-5.7,5.8c-0.4,1.7-0.4,3.4-0.3,5.1c0.2,3.9,2.6,6.7,6.4,7.5h0.2
	c0.1,0,0.3,0.1,0.4,0.1h0.1c0.2,0,0.4,0.1,0.6,0.1c0.7,0.1,1.7,0.1,2.4,0h0.1c3.9-0.2,6.8-2.6,7.7-6.4c0.5-2,0.5-4.1,0-6.2
	C126.3,12.7,124.3,10.7,121.2,9.9L121.2,9.9z M121.4,21.1c0,0.1,0,0.2-0.1,0.4c-0.4,1.7-1.6,2.7-3.3,2.6c-1.8-0.1-3-1.1-3.2-2.9
	c-0.1-1.3-0.1-2.6,0-4c0.2-2.1,1.5-3.2,3.4-3.2c1.6,0,2.7,0.9,3.1,2.5C121.7,18,121.5,20.8,121.4,21.1L121.4,21.1z M129.2,0.7v27.5
	h5.8v-8.4l5.4,8.4h6.2l-5.8-9.2l5.8-9.1h-6.2l-5.4,8.4V0L129.2,0.7z M67,19.7c0-1.3,0-2.6-0.2-3.8c-0.5-3.4-2.6-5.6-6-6.2
	c-1.3-0.2-2.7-0.2-4-0.1c-3.6,0.3-6.3,2.6-6.9,6c-0.3,2-0.4,4.2-0.1,6.3c0.4,3.1,1.9,5.1,4.5,6c1.2,0.4,7,1.9,12.1-0.7l-0.2-0.8
	c-0.2-1-0.5-2-0.8-3v-0.1c0,0-0.1,0-0.3,0.1c-0.2,0.1-0.4,0.1-0.7,0.2h-0.1c-0.8,0.2-1.9,0.5-3.1,0.6c-1,0.1-2,0.1-3,0
	c-1.6-0.3-2.9-1.1-2.8-3.2H67v-0.2L67,19.7z M61.8,17.2h-6.3c0-1.2,0.2-2.4,1.3-3.1c1.2-0.8,2.5-0.8,3.7-0.1
	C61.7,14.6,61.8,15.9,61.8,17.2z M49.1,26.9c-0.2-0.9-0.5-1.8-0.8-2.7l-0.3-1c0,0-6.8,3.3-7.9-3c-0.1-1-0.1-2.1,0.1-3.1
	c0.3-1.9,1.4-2.9,3.3-3.1c0.6-0.1,1.3,0,1.9,0.1c0.8,0.1,1.7,0.4,2.6,0.6c0.3-1,0.6-2,1-2.9c0.1-0.1,0.1-0.3,0.1-0.4l0.2-0.6
	c0-0.1-0.1-0.2-0.3-0.2c-0.2-0.1-0.4-0.2-0.8-0.4c-0.2-0.1-0.3-0.1-0.5-0.2C47.5,10,47.4,10,47.4,10c-1.8-0.5-3.6-0.5-5.5-0.4
	c-3.9,0.4-6.6,2.7-7.4,6.6c-0.4,2-0.4,4.1,0.1,6.1c0.7,3,2.5,5,5.5,5.9c2,0.6,4,0.6,5.9,0.3c0.8-0.1,2-0.6,2.9-0.9l0.3-0.1
	L49.1,26.9L49.1,26.9z M27,12.1c-0.1-0.1-0.1-0.1-0.2-0.2l-0.1-0.1c-1.3-1.3-1.8-1.7-2.8-2c-4-1.2-7.8,0.9-9,4.9
	c-0.8,2.5-0.8,5-0.3,7.5c1,5.4,4.9,7.2,9.2,6.3c1.3-0.3,2.3-1.1,3.2-2.2c0,0,0.1-0.1,0.2-0.3v2.4h5.5V9.8H27L27,12.1L27,12.1z
	 M26.5,21.4c-0.2,1.7-1.6,2.7-3.2,2.7c-1.7-0.1-2.8-1-3.1-2.6c-0.4-2.3,0.1-5,0.1-5.2c0.4-1.5,1.5-2.3,3.2-2.2c1.6,0,2.8,1,3,2.7
	C26.7,18.3,26.7,19.9,26.5,21.4z M13.7,9.8H9.5V7c0.3-2.6,4.6-2.1,4.6-2.1V0.4c-0.1,0-8.6-2-10.3,4.4c-0.3,0.8-0.2,4.5-0.2,5H0v4.9
	h3.8v13.4h5.6V14.7h4.3l0.5-4.9L13.7,9.8L13.7,9.8z M101.3,9.9c-2-0.5-4.1-0.5-6.1,0c-3,0.8-5.1,2.7-5.7,5.8
	c-0.4,1.7-0.4,3.4-0.3,5.1c0.2,3.9,2.6,6.7,6.4,7.5h0.2c0.1,0,0.3,0.1,0.4,0.1h0.2c0.2,0,0.4,0.1,0.6,0.1c0.7,0.1,1.7,0.1,2.4,0h0.1
	c3.9-0.2,6.8-2.6,7.7-6.4c0.5-2,0.5-4.1,0-6.2C106.4,12.7,104.4,10.7,101.3,9.9L101.3,9.9z M101.5,21.1c0,0.1,0,0.2-0.1,0.4
	c-0.4,1.7-1.6,2.7-3.3,2.6c-1.8-0.1-3-1.1-3.2-2.9c-0.1-1.3-0.1-2.6,0-4c0.2-2.1,1.5-3.2,3.4-3.2c1.6,0,2.7,0.9,3.1,2.5
	C101.8,18,101.6,20.8,101.5,21.1L101.5,21.1z M80.6,9.5c-2.2-0.2-4.1,0.4-5.7,2.4V0L69,0.7v27.5h5.8v-1.6c0.8,0.6,1.6,1.2,2.4,1.6
	c3.4,1.2,7.9,0.2,9.4-4.3c1-2.9,1-5.9,0.2-8.9C86.2,11.7,84,9.9,80.6,9.5z M81.5,21.4c-0.3,1.8-1.7,2.8-3.4,2.6
	c-0.4,0-0.8-0.1-1.2-0.3c-1.4-0.8-1.8-2.1-1.9-3c-0.1-1.3-0.2-4,0.4-5.3c0.5-1,1.5-1.5,2.7-1.5c1.8-0.1,3.1,0.8,3.3,2.6
	C81.7,18.2,81.7,19.9,81.5,21.4L81.5,21.4z"/>
</svg>
