<?xml version="1.0" encoding="utf-8"?>
<!-- Generator: Adobe Illustrator 22.0.1, SVG Export Plug-In . SVG Version: 6.00 Build 0)  -->
<svg version="1.1" id="svg2528" xmlns:svg="http://www.w3.org/2000/svg"
	 xmlns="http://www.w3.org/2000/svg" xmlns:xlink="http://www.w3.org/1999/xlink" x="0px" y="0px" viewBox="0 0 1007.8 237.7"
	 style="enable-background:new 0 0 1007.8 237.7;" xml:space="preserve">
<style type="text/css">
	.st0{fill:#FFFFFF;}
	.st1{fill:#868F98;}
</style>
<g id="layer1" transform="translate(-208.33036,-691.27959)">
	<path id="rect2450" class="st0" d="M993.1,701.7v209.9h212.6V701.7H993.1z M734.6,702.2v209.9h212V702.2H734.6z M478.3,702.8v209.9
		h212V702.8H478.3z M221.4,703.8v209.3h212V703.8H221.4z"/>
	<path id="path2999" class="st1" d="M208.3,691.3V929h237.7V691.3H208.3z M465.2,691.3V929h237.7V691.3H465.2z M721.5,691.3V929
		h237.7V691.3H721.5z M978.4,691.3V929h237.7V691.3H978.4z M1097,715.3c52.3,0,94.5,42.8,94.5,95.1c0,52.3-42.3,94.5-94.5,94.5
		c-52.3,0-94.5-42.3-94.5-94.5C1002.4,758.1,1044.7,715.3,1097,715.3z M243.3,726.3h168.3v29.5h-70v108.8h70v29H242.8v-29h69.4
		V755.8h-68.9V726.3z M499.1,726.3h22.4h62.3c46.8,0,84.7,37.9,84.7,84.7c0,46.8-37.9,83.1-84.7,83.1h-62.3h-22.4V726.3z
		 M756.5,726.3h168.3v29.5H785.5v39.3h109.9v30.1H785.5v39.9h139.4v29H756.5V726.3z M1097,748.1c-34.2,0-61.8,28.1-61.8,62.3
		s27.5,61.8,61.8,61.8c34.2,0,61.8-27.5,61.8-61.8S1131.2,748.1,1097,748.1z M583.8,755.2l-41,0.5H528v108.8h14.8h41
		c30.6,0,55.7-23.5,55.7-54.1C639.5,779.8,614.4,755.2,583.8,755.2z"/>
</g>
</svg>
