<?xml version="1.0" encoding="utf-8"?>
<!-- Generator: Adobe Illustrator 22.0.1, SVG Export Plug-In . SVG Version: 6.00 Build 0)  -->
<svg version="1.1" id="Layer_1" xmlns="http://www.w3.org/2000/svg" xmlns:xlink="http://www.w3.org/1999/xlink" x="0px" y="0px"
	 viewBox="0 0 293 194" style="enable-background:new 0 0 293 194;" xml:space="preserve">
<style type="text/css">
	.st0{fill:#868F98;}
</style>
<path class="st0" d="M252.2,45.1c0.9,0,1.8,0.2,2.6,0.7c0.8,0.4,1.4,1.1,1.9,1.9c0.5,0.8,0.7,1.7,0.7,2.6c0,0.9-0.2,1.7-0.7,2.5
	c-0.4,0.8-1,1.5-1.9,1.9c-0.8,0.4-1.7,0.7-2.6,0.7s-1.8-0.2-2.6-0.7c-0.8-0.4-1.4-1.1-1.9-1.9c-0.5-0.8-0.7-1.7-0.7-2.5
	c0-0.9,0.2-1.8,0.7-2.6c0.5-0.8,1.1-1.4,1.9-1.9C250.5,45.4,251.3,45.1,252.2,45.1L252.2,45.1z M252.2,46c-0.7,0-1.5,0.2-2.2,0.6
	c-0.7,0.4-1.2,0.9-1.6,1.6c-0.4,0.7-0.6,1.4-0.6,2.1c0,0.7,0.2,1.4,0.6,2.1c0.4,0.7,0.9,1.2,1.6,1.6c0.7,0.4,1.4,0.5,2.2,0.5
	c0.8,0,1.5-0.2,2.2-0.5c0.7-0.4,1.2-0.9,1.6-1.6c0.4-0.7,0.6-1.4,0.6-2.1c0-0.7-0.2-1.5-0.6-2.1c-0.4-0.7-0.9-1.2-1.6-1.6
	C253.7,46.2,252.9,46,252.2,46z M249.9,53.1v-5.5h1.9c0.7,0,1.2,0,1.5,0.1c0.3,0.1,0.6,0.3,0.7,0.5c0.2,0.2,0.3,0.5,0.3,0.8
	c0,0.4-0.2,0.7-0.5,1c-0.3,0.3-0.7,0.5-1.2,0.5c0.3,0.1,0.5,0.2,0.6,0.3c0.2,0.2,0.5,0.6,0.8,1.1l0.7,1.1h-1.1l-0.5-0.9
	c-0.5-0.7-0.8-1.1-1.1-1.3c-0.1-0.1-0.4-0.2-0.7-0.2h-0.5v2.3C250.8,53.1,249.9,53.1,249.9,53.1z M250.8,50h1.1
	c0.5,0,0.9-0.1,1.1-0.2c0.2-0.2,0.3-0.4,0.3-0.6c0-0.2,0-0.3-0.1-0.4c-0.1-0.1-0.2-0.2-0.5-0.3c-0.1-0.1-0.4-0.1-0.9-0.1h-1
	L250.8,50L250.8,50z M98.6,82.3c4.4,0,6.2,2.2,6.2,5.7v41.8h15.1V88c0-8.5-4.5-17.9-17.7-17.9H71.1v59.7h15V82.3 M188.5,81.6
	c-5.2,0-9.1,2.7-10.8,6.3c-1,2.2-1.3,3.8-1.5,6.5h23.3C199.1,87.8,196.1,81.6,188.5,81.6 M176.2,104.6c0,7.7,4.9,13.4,13.4,13.4
	c6.6,0,10-1.9,13.8-5.7l9.3,9c-6,5.8-12.2,9.4-23.2,9.4c-14.4,0-28.2-7.8-28.2-30.9c0-19.6,12-30.7,27.9-30.7s25.1,13,25.1,30v5.5
	L176.2,104.6 M148.6,129.7c-12.3,0-17.5-8.6-17.5-17V53.8h15v16.3h11.4v12.2h-11.4v29.5c0,3.5,1.7,5.3,5.2,5.3h6.2v12.6L148.6,129.7
	 M42.6,47.4h15.2v14.4H42.6V47.4z M57.7,70.1H42.6v44.4c0,7.9,3.8,14.8,15.2,15.9 M238.4,45.3h-15.2v67.9c0,7.9,3.8,14.8,15.2,15.9
	 M291.4,55C277.5-12.1,147.5-16.4,63.8,34.8v5.7C147.4-2.7,266.2-2.5,277,59.4c3.7,20.5-7.8,41.8-28.4,54.1v16.1
	C273.4,120.5,298.6,91.1,291.4,55 M138.9,172.6c-57.8,5.4-118-3-126.5-48.3c-4.2-22.4,6-46.1,19.5-60.8v-7.9
	C7.6,77-5.6,104,2.1,135.8c9.7,41,61.4,64.1,140.3,56.4c31.3-3,72.2-13.1,100.5-28.8v-22.2C217.2,156.6,174.5,169.4,138.9,172.6z"/>
</svg>
