<?xml version="1.0" encoding="utf-8"?>
<!-- Generator: Adobe Illustrator 22.0.1, SVG Export Plug-In . SVG Version: 6.00 Build 0)  -->
<svg version="1.1" id="Layer_1" xmlns="http://www.w3.org/2000/svg" xmlns:xlink="http://www.w3.org/1999/xlink" x="0px" y="0px"
	 viewBox="0 0 2426.5 676.2" style="enable-background:new 0 0 2426.5 676.2;" xml:space="preserve">
<style type="text/css">
	.st0{fill:#868F98;}
</style>
<g>
	<path class="st0" d="M1291.1,659.6h333c49.8,0,90.6-20.4,123.7-61.3c31.9-39.5,48.5-86.7,48.5-140.3c0-108.4-139-185-192.7-185
		h-182.4c-14,0-25.5-6.4-34.4-16.6c-8.9-11.5-14-24.2-14-39.6c0-17.9,5.1-33.2,14-45.9c10.2-12.7,23-20.4,38.3-20.4h341.9V14h-348.3
		c-62.5,0-111,19.1-145.5,56.1c-30.6,34.4-45.9,80.4-45.9,135.2c0,53.6,15.3,100.8,45.9,139c34.4,42.1,75.3,63.8,125,63.8h210.5
		c12.7,0,23,3.8,30.6,14c8.9,10.2,12.8,23,12.8,37c0,16.6-6.4,31.9-16.6,44.7c-11.5,11.5-24.2,17.9-40.8,17.9h-336.8l-5.1-8.9
		l-126.3-405.7l-6.4-12.8c-30.6-62.5-81.6-93.1-151.8-93.1c-38.3,0-72.7,8.9-103.3,28.1c-31.9,19.1-52.3,47.2-63.8,82.9l-169.7,546
		l154.4,1.3l155.6-486.1c3.8-15.3,12.8-23,24.2-23c6.4,0,11.5,2.5,15.3,6.4c3.8,5.1,6.4,10.2,7.7,16.6l156.9,486.1L1291.1,659.6
		L1291.1,659.6L1291.1,659.6z M142.9,213.1v445.2H0V164.6C0,100.8,15.3,56.1,48.5,29.4C74,10.2,112.3,0,165.8,0
		c43.4,0,80.4,12.8,113.5,37c33.2,24.2,54.8,57.4,66.3,98.2l93.1,327.9l15.3,44.7c1.3,8.9,6.4,15.3,11.5,20.4
		c6.4,5.1,12.7,7.7,20.4,5.1c12.8-1.3,19.1-8.9,19.1-20.4V15.3h146.7v491.2c0,54.9-12.7,95.7-39.5,125
		c-25.5,29.3-63.8,44.7-114.8,44.7c-44.7,0-81.7-8.9-111-24.2c-35.7-17.9-58.7-45.9-68.9-82.9L210.5,195.2l-7.7-24.2
		c-2.6-8.9-7.7-15.3-14-21.7c-6.4-5.1-14-6.4-21.7-5.1c-7.7,1.3-12.7,5.1-17.9,12.8c-4.2,6.9-6.4,14.9-6.4,23L142.9,213.1
		L142.9,213.1z M2426.5,659.6l-165.8-552.4l-6.4-12.8c-30.6-62.5-81.6-93.1-151.8-93.1c-38.3,0-72.7,8.9-103.3,28.1
		c-31.9,19.1-52.3,47.2-63.8,82.9l-169.7,546l154.4,1.3l155.6-486.1c3.8-15.3,12.8-23,24.2-23c6.4,0,11.5,2.5,15.3,6.4
		c3.9,5.1,6.4,10.2,7.7,16.6l156.9,486.1L2426.5,659.6L2426.5,659.6L2426.5,659.6z"/>
</g>
</svg>
