<?xml version="1.0" encoding="utf-8"?>
<!-- Generator: Adobe Illustrator 22.0.1, SVG Export Plug-In . SVG Version: 6.00 Build 0)  -->
<svg version="1.1" id="Layer_1" xmlns="http://www.w3.org/2000/svg" xmlns:xlink="http://www.w3.org/1999/xlink" x="0px" y="0px"
	 viewBox="0 0 713.3 142.7" style="enable-background:new 0 0 713.3 142.7;" xml:space="preserve">
<style type="text/css">
	.st0{fill:#868F98;}
</style>
<g>
	<path class="st0" d="M58.6,142.7C26.2,142.7,0,116.4,0,84.1l0.2-67.3C0.2,7.5,7.7,0,17,0c9.3,0,16.8,7.5,16.8,16.8V42h42
		c9.3,0,16.8,7.5,16.8,16.8S85,75.5,75.7,75.5h-42V84c0,13.9,11.2,25.1,25.1,25.1c0,0,0,0,0,0h25.2c9.3,0,16.8,7.5,16.8,16.8
		s-7.5,16.8-16.8,16.8L58.6,142.7L58.6,142.7z"/>
	<path class="st0" d="M390.2,142.7c-32.4,0-58.4-26.3-58.4-58.6V16.8c0-9.3,7.5-16.8,16.8-16.8s16.8,7.5,16.8,16.8V42h25.2
		c9.3-0.1,16.9,7.3,17,16.6c0.1,9.3-7.3,16.9-16.6,17c-0.1,0-0.3,0-0.4,0h-25.2V84c0,13.9,11.2,25.1,25.1,25.1l0,0h8.5
		c9.3,0,16.8,7.5,16.8,16.8s-7.5,16.8-16.8,16.8L390.2,142.7L390.2,142.7z"/>
	<path class="st0" d="M478.3,142.7c-32.4,0-58.4-26.3-58.4-58.6V16.8C420,7.5,427.7,0.1,437,0.3c9,0.2,16.3,7.4,16.5,16.5V42h25.2
		c9.3-0.1,16.9,7.3,17,16.6s-7.3,16.9-16.6,17c-0.1,0-0.3,0-0.4,0h-25.2V84c0,13.9,11.2,25.1,25.1,25.1c0,0,0,0,0,0h8.5
		c9.3,0.1,16.7,7.7,16.6,17c-0.1,9.1-7.5,16.4-16.6,16.6L478.3,142.7L478.3,142.7z"/>
	<path class="st0" d="M621.4,92.3c0-27.8,22.3-50.4,50.1-50.4h25.2c9.3,0.1,16.7,7.7,16.6,17c-0.1,9.1-7.5,16.4-16.6,16.6h-25.2
		c-9.3,0-16.8,7.5-16.8,16.8c0,0,0,0,0,0l0.3,33.6c0,9.3-7.5,16.8-16.8,16.8c0,0,0,0,0,0c-9.3,0-16.8-7.5-16.8-16.8c0,0,0,0,0,0
		L621.4,92.3L621.4,92.3z"/>
	<path class="st0" d="M256.2,42c-9.3,0-16.8,7.5-16.8,16.8c0,0,0,0,0,0v33.6c0,9.3-7.5,16.8-16.8,16.8c-9.3,0-16.8-7.5-16.8-16.8
		V58.8c0.1-9.3-7.3-16.9-16.6-17c-9.3-0.1-16.9,7.3-17,16.6c0,0.1,0,0.3,0,0.4v33.6c0,9.3-7.5,16.8-16.8,16.8
		c-9.3,0-16.8-7.5-16.8-16.8V58.8c0.1-9.3-7.3-16.9-16.6-17c-9.3-0.1-16.9,7.3-17,16.6c0,0.1,0,0.3,0,0.4v33.6
		c0,27.8,22.5,50.4,50.4,50.4c12.9,0,24.7-4.9,33.6-12.9c8.9,8,20.7,12.9,33.6,12.9c27.8,0,50.4-22.5,50.4-50.4V58.8
		C273,49.5,265.5,42,256.2,42L256.2,42z"/>
	<path class="st0" d="M302.4,42c-9.3,0-16.8,7.5-16.8,16.8c0,0,0,0,0,0v67.1c0,9.3,7.5,16.8,16.8,16.8s16.8-7.5,16.8-16.8V58.8
		C319.2,49.5,311.6,42,302.4,42C302.4,42,302.4,42,302.4,42z"/>
	<circle class="st0" cx="302.4" cy="16.8" r="16.8"/>
	<path class="st0" d="M608.7,83.9c0,5.9-2.5,16.7-11.2,16.7l-55.4,0c1.9,7.4,8.6,12.6,16.3,12.6h35.8c8.1,0,14.7,6.6,14.7,14.7
		c0,0,0,0,0,0c0,8.1-6.6,14.7-14.7,14.7c0,0,0,0,0,0h-35.8c-27.8,0-50.4-22.7-50.4-54.6c0-27.9,22.6-46.2,50.4-46.2
		C586.2,42,608.8,60.8,608.7,83.9L608.7,83.9L608.7,83.9z M575.2,79.7c0-7.7-7.5-14-16.8-14c-9.3,0-16.8,6.3-16.8,14H575.2z"/>
</g>
</svg>
